<?xml version="1.0" standalone="no"?>
<!DOCTYPE svg PUBLIC "-//W3C//DTD SVG 20010904//EN"
 "http://www.w3.org/TR/2001/REC-SVG-20010904/DTD/svg10.dtd">
<svg version="1.0" xmlns="http://www.w3.org/2000/svg"
 width="1280.000000pt" height="1280.000000pt" viewBox="0 0 1280.000000 1280.000000"
 preserveAspectRatio="xMidYMid meet">
<metadata>
Created by potrace 1.14, written by Peter Selinger 2001-2017
</metadata>
<g transform="translate(0.000000,1280.000000) scale(0.100000,-0.100000)"
fill="#000000" stroke="none">
<path d="M6118 12795 c-2 -2 -59 -6 -128 -9 -69 -4 -143 -8 -165 -11 -22 -2
-69 -7 -105 -10 -36 -3 -103 -10 -150 -15 -47 -6 -107 -13 -135 -16 -27 -3
-57 -7 -65 -9 -8 -2 -33 -7 -55 -10 -23 -3 -52 -7 -65 -10 -13 -3 -42 -7 -65
-10 -36 -6 -91 -17 -300 -61 -67 -14 -127 -31 -280 -76 -648 -192 -1042 -484
-1117 -828 -22 -102 -13 -224 23 -308 19 -45 19 -47 0 -166 -11 -67 -22 -139
-26 -161 -3 -22 -16 -109 -30 -192 -44 -268 -74 -454 -95 -588 -11 -71 -25
-152 -31 -178 -11 -47 -12 -48 -43 -42 l-31 6 28 -16 c22 -13 27 -22 23 -39
-5 -22 -12 -74 -21 -171 -27 -285 -27 -1848 0 -3225 2 -96 6 -344 9 -550 6
-360 11 -639 21 -1170 27 -1462 27 -2948 0 -3255 -11 -124 -28 -212 -51 -268
-60 -143 -25 -294 115 -504 210 -313 622 -629 1033 -792 81 -32 233 -77 290
-86 18 -3 58 -10 88 -15 31 -5 697 -9 1550 -9 1654 0 1528 -5 1684 68 435 203
1071 799 1310 1227 103 185 133 328 95 447 -22 68 -24 81 -36 242 -14 200 -7
1305 12 1885 2 58 6 211 10 340 3 129 8 287 10 350 3 63 7 203 10 310 3 107 8
240 10 295 2 55 6 195 9 310 4 116 9 260 11 320 3 61 7 196 10 300 3 105 8
242 10 305 2 63 6 205 10 315 3 110 8 259 10 330 17 507 22 693 30 1050 3 149
8 351 10 450 7 244 7 1257 1 1375 -12 233 -30 390 -51 441 -4 12 3 20 24 29
17 7 31 16 31 21 0 5 -14 2 -31 -6 -17 -9 -32 -15 -33 -13 -3 3 -2 -1 -86 238
-73 208 -226 640 -279 789 l-40 113 14 62 c24 102 20 184 -14 259 -32 71 -81
151 -127 207 -77 92 -240 230 -334 281 -14 8 -32 19 -40 26 -33 26 -290 147
-335 158 -5 1 -23 8 -40 14 -16 7 -34 14 -40 15 -5 2 -17 5 -25 9 -35 12 -148
48 -190 59 -25 6 -49 13 -55 15 -8 3 -103 24 -210 47 -79 17 -224 43 -281 51
-21 2 -59 7 -84 10 -94 13 -106 14 -155 19 -27 3 -90 8 -140 12 -49 4 -103 8
-120 10 -34 5 -783 13 -787 9z m-2358 -1657 c30 -20 69 -43 85 -51 17 -9 26
-16 22 -17 -32 -1 -217 121 -217 144 0 5 12 -2 28 -16 15 -14 52 -41 82 -60z
m145 -78 c3 -6 -1 -7 -9 -4 -18 7 -21 14 -7 14 6 0 13 -4 16 -10z m578 -147
c-7 -2 -19 -2 -25 0 -7 3 -2 5 12 5 14 0 19 -2 13 -5z m178 -18 c46 -4 98 -9
114 -11 28 -3 82 -8 230 -19 222 -16 609 -25 1104 -26 238 0 431 -2 429 -5 -8
-8 -402 -18 -688 -18 -237 0 -567 9 -675 18 -22 2 -83 7 -135 10 -52 4 -111 9
-130 11 -19 2 -57 6 -85 9 -67 7 -179 19 -185 21 -3 1 -36 5 -74 9 -38 5 -63
12 -56 16 7 4 25 4 40 0 15 -4 65 -11 111 -15z m1922 -62 c-7 -2 -19 -2 -25 0
-7 3 -2 5 12 5 14 0 19 -2 13 -5z"/>
</g>
</svg>
