<?xml version="1.0" standalone="no"?>
<!DOCTYPE svg PUBLIC "-//W3C//DTD SVG 20010904//EN"
 "http://www.w3.org/TR/2001/REC-SVG-20010904/DTD/svg10.dtd">
<svg version="1.0" xmlns="http://www.w3.org/2000/svg"
 width="1920.000000pt" height="1920.000000pt" viewBox="0 0 1920.000000 1920.000000"
 preserveAspectRatio="xMidYMid meet">
<metadata>
Created by potrace 1.14, written by Peter Selinger 2001-2017
</metadata>
<g transform="translate(0.000000,1920.000000) scale(0.100000,-0.100000)"
fill="#000000" stroke="none">
<path d="M9568 16804 c-2 -1 -30 -5 -63 -8 -56 -6 -113 -10 -330 -21 -289 -15
-345 -21 -470 -50 -33 -7 -100 -16 -150 -20 -49 -3 -121 -8 -160 -11 -38 -2
-86 -7 -105 -9 -19 -2 -62 -7 -94 -10 -33 -4 -69 -9 -80 -11 -12 -2 -37 -7
-56 -10 -19 -3 -66 -12 -105 -20 -38 -8 -86 -17 -105 -20 -31 -4 -75 -11 -135
-21 -11 -1 -84 -5 -162 -8 -121 -4 -151 -8 -202 -29 -123 -50 -204 -68 -316
-71 -46 -1 -95 -9 -115 -18 -42 -18 -76 -24 -195 -32 -132 -10 -161 -20 -219
-76 -53 -52 -56 -53 -124 -50 -34 2 -54 -4 -85 -25 -33 -22 -57 -29 -110 -32
-63 -4 -71 -7 -115 -47 -52 -47 -112 -82 -152 -88 -14 -2 -46 -14 -71 -25 -25
-12 -61 -23 -80 -26 -105 -14 -137 -25 -334 -122 -71 -35 -143 -66 -160 -70
-16 -4 -52 -23 -80 -44 -27 -20 -70 -48 -95 -63 -58 -34 -89 -62 -123 -114
-15 -24 -31 -43 -35 -43 -96 -3 -154 -23 -209 -71 -18 -15 -54 -40 -80 -55
-74 -42 -128 -88 -250 -212 -110 -111 -204 -226 -236 -287 -8 -16 -38 -56 -66
-88 -70 -80 -127 -180 -166 -292 -21 -59 -46 -109 -67 -134 -100 -117 -239
-493 -353 -956 -69 -279 -90 -391 -100 -525 -4 -47 -15 -116 -25 -155 -22 -85
-29 -135 -45 -320 -4 -44 -8 -96 -10 -115 -5 -48 -14 -202 -20 -335 -3 -60 -7
-150 -10 -200 -5 -102 -14 -447 -20 -830 -17 -1058 -25 -1472 -30 -1645 -2
-80 -7 -271 -11 -425 -3 -154 -7 -338 -9 -410 -6 -268 -16 -862 -20 -1215 -3
-201 -7 -378 -10 -395 -9 -45 -24 -58 -62 -52 -38 7 -83 40 -193 140 -120 110
-284 217 -333 217 -27 0 -70 25 -189 107 -59 41 -127 83 -150 93 -24 11 -59
34 -78 51 -46 41 -137 86 -201 100 -37 8 -74 28 -136 76 -116 86 -125 90 -234
98 -52 4 -101 11 -110 16 -27 14 -162 50 -214 57 -64 8 -226 8 -330 0 -103 -9
-161 -21 -260 -57 -44 -16 -107 -35 -140 -41 -109 -21 -162 -40 -216 -78 -30
-21 -90 -56 -133 -77 -98 -50 -159 -102 -194 -169 -24 -46 -27 -61 -27 -156 2
-339 160 -771 366 -1000 73 -81 145 -174 165 -212 23 -44 128 -161 319 -352
168 -169 233 -227 445 -397 89 -71 168 -136 176 -144 8 -8 36 -31 62 -52 26
-21 49 -40 52 -43 3 -3 28 -24 55 -45 28 -22 52 -42 55 -45 3 -3 43 -35 90
-70 47 -36 87 -67 90 -70 3 -3 41 -30 85 -59 44 -30 105 -77 135 -105 30 -27
100 -79 155 -114 55 -36 154 -106 220 -157 153 -116 225 -163 410 -264 207
-114 320 -167 385 -181 30 -6 64 -15 75 -20 11 -4 83 -34 160 -65 215 -88 349
-150 475 -220 63 -35 144 -72 180 -83 36 -11 160 -56 275 -100 116 -44 228
-85 250 -92 43 -14 51 -18 194 -104 52 -31 104 -56 115 -57 38 -1 58 -7 75
-23 9 -9 37 -22 61 -31 25 -8 97 -42 160 -74 63 -33 151 -69 195 -81 44 -12
130 -41 190 -65 61 -24 124 -46 140 -48 88 -14 207 -52 298 -96 159 -77 221
-91 385 -86 119 3 143 1 181 -16 24 -10 73 -24 109 -29 36 -6 126 -27 199 -46
151 -40 148 -39 223 -49 162 -20 234 -34 326 -64 49 -16 110 -32 134 -36 24
-4 51 -10 60 -15 36 -19 117 -25 431 -35 123 -4 262 -9 309 -10 47 -2 128 -7
180 -11 52 -4 136 -8 185 -7 827 6 1421 13 1465 17 30 2 116 7 190 11 74 3
167 8 205 11 230 17 512 8 588 -19 42 -15 46 -15 209 26 64 16 130 25 195 26
174 3 330 10 364 16 137 22 165 32 277 94 113 62 239 102 351 111 53 4 146 22
206 38 109 30 151 39 231 47 23 2 68 17 100 34 63 31 168 64 324 101 52 13
140 40 195 62 55 21 165 55 244 74 79 19 187 53 240 74 l96 39 54 -19 c103
-35 185 -10 299 91 37 33 92 71 122 85 30 14 73 34 95 44 53 25 71 29 130 31
66 3 98 22 123 75 26 52 52 70 114 77 51 6 122 38 192 86 23 16 71 44 107 63
59 30 71 33 146 31 l83 -2 16 35 c30 64 216 169 319 181 39 5 57 14 83 41 44
45 213 159 282 190 30 14 71 37 90 52 19 15 73 42 120 60 97 38 138 60 196
107 23 18 44 33 47 33 26 0 487 302 608 399 29 23 87 63 128 88 176 107 238
157 339 276 18 21 83 81 145 134 143 122 323 298 588 574 79 81 155 179 168
215 7 21 37 76 65 123 50 83 194 370 201 401 2 8 8 35 14 60 14 61 6 271 -14
344 -34 129 -126 248 -253 330 -219 142 -362 171 -847 170 -355 -1 -484 -18
-567 -75 -34 -25 -46 -24 -90 6 -20 14 -41 25 -46 25 -4 0 -18 -18 -30 -39
-33 -59 -71 -86 -242 -171 -85 -42 -191 -98 -235 -124 -44 -25 -87 -46 -95
-46 -20 0 -79 -40 -132 -91 -113 -105 -273 -208 -321 -205 -20 1 -22 6 -20 51
6 143 5 285 -1 325 -31 200 -124 323 -263 345 -20 3 -38 7 -39 8 -1 1 -4 756
-7 1677 -2 921 -7 1684 -10 1695 -11 43 -20 169 -32 455 -16 382 -26 590 -30
655 -2 33 -6 105 -10 160 -3 55 -8 118 -10 140 -2 22 -7 84 -10 138 -4 53 -8
107 -10 120 -2 12 -6 54 -10 92 -7 80 -13 131 -20 195 -3 25 -8 65 -10 90 -3
25 -7 65 -9 90 -6 54 -14 141 -21 230 -18 235 -31 327 -50 374 -8 18 -16 68
-20 112 -9 129 -16 176 -36 239 -18 58 -21 77 -34 195 -16 139 -104 292 -176
307 -34 6 -59 29 -89 80 -192 323 -353 509 -525 608 -27 15 -68 47 -90 69 -22
23 -80 73 -130 111 -49 38 -111 89 -137 113 -26 25 -91 71 -145 103 -54 33
-125 76 -158 97 -33 21 -105 62 -160 92 -115 61 -167 94 -209 132 -17 15 -55
35 -86 44 -30 9 -59 19 -65 24 -46 35 -269 138 -386 179 -79 27 -196 68 -259
91 -277 100 -295 106 -435 149 -168 51 -445 115 -635 145 -19 3 -46 8 -60 11
-14 3 -63 12 -110 20 -47 8 -96 17 -110 20 -14 3 -41 8 -60 11 -19 3 -78 17
-130 29 -87 22 -136 27 -393 40 -49 2 -103 7 -120 10 -18 2 -48 7 -67 9 -19 3
-57 10 -85 15 -85 16 -213 26 -475 36 -80 3 -174 8 -210 10 -36 2 -123 7 -195
10 -71 4 -164 14 -205 22 -68 13 -186 24 -192 17z m-627 -224 c31 -17 24 -49
-17 -66 -70 -29 -201 -14 -187 22 15 40 154 70 204 44z m644 -22 c14 -6 35
-28 47 -47 12 -20 27 -39 32 -44 15 -11 73 1 118 24 50 26 87 24 128 -6 19
-14 38 -25 42 -25 5 0 28 18 52 40 80 74 137 83 210 32 88 -62 78 -60 151 -24
36 17 74 32 85 32 20 0 36 -27 56 -94 18 -59 59 -73 189 -66 39 2 165 -9 175
-15 3 -2 39 -6 80 -10 41 -4 77 -8 80 -10 3 -2 34 -6 70 -10 36 -3 72 -8 80
-10 8 -2 40 -7 70 -10 54 -6 91 -11 140 -20 14 -2 45 -7 70 -10 25 -3 52 -8
60 -10 8 -3 35 -7 59 -10 42 -5 71 -10 121 -20 14 -3 41 -8 60 -11 19 -3 69
-12 110 -20 41 -8 84 -16 96 -18 126 -24 437 -118 523 -158 67 -31 67 -31 146
-43 28 -3 59 -15 70 -25 11 -9 81 -39 155 -65 138 -48 211 -76 265 -100 186
-82 296 -135 380 -182 55 -30 127 -69 160 -85 33 -16 123 -69 200 -117 77 -48
192 -119 255 -156 63 -37 143 -90 178 -116 250 -189 563 -535 692 -765 42 -74
152 -367 182 -483 64 -251 82 -333 123 -576 17 -104 29 -219 40 -390 3 -49 8
-115 10 -145 9 -129 21 -334 30 -505 11 -216 14 -282 20 -425 3 -80 7 -194 10
-255 2 -60 7 -186 10 -280 2 -93 7 -253 11 -355 25 -815 40 -3206 21 -3527 -7
-132 -23 -174 -73 -198 -68 -32 -86 18 -76 209 12 230 4 2228 -13 3111 -5 259
-16 735 -20 850 -2 61 -6 191 -10 290 -5 175 -9 247 -20 465 -3 58 -7 150 -10
205 -5 96 -13 220 -20 315 -2 25 -6 86 -10 135 -3 50 -8 108 -10 130 -11 112
-17 163 -20 190 -2 17 -7 62 -10 100 -3 39 -8 77 -10 85 -2 8 -7 38 -11 65 -3
28 -7 52 -9 55 -2 3 -6 30 -10 60 -11 87 -81 370 -99 399 -3 4 -7 18 -10 32
-16 83 -30 128 -49 159 -34 53 -83 149 -107 209 -93 237 -596 762 -854 893
-32 16 -124 69 -205 117 -242 145 -467 263 -671 350 -69 30 -176 78 -239 108
-167 80 -334 138 -636 223 -152 42 -252 67 -306 74 -25 4 -57 9 -70 11 -151
26 -206 37 -278 58 -90 27 -103 26 -138 -6 -46 -41 -19 -104 47 -112 42 -6 59
-11 160 -50 47 -18 148 -45 225 -60 77 -15 210 -47 295 -72 85 -24 191 -53
235 -63 44 -10 114 -34 155 -53 41 -19 107 -42 145 -51 39 -10 84 -24 100 -31
17 -7 78 -34 136 -59 59 -25 147 -64 195 -87 49 -22 127 -57 174 -76 405 -168
790 -417 1025 -665 159 -167 322 -379 370 -483 103 -220 196 -477 229 -635 22
-110 41 -219 51 -310 3 -30 8 -66 10 -80 2 -14 7 -54 10 -90 3 -36 8 -83 10
-105 5 -46 13 -156 20 -270 3 -44 7 -107 9 -140 3 -33 8 -116 11 -185 4 -69 8
-156 10 -195 12 -215 33 -841 40 -1175 16 -748 20 -1053 20 -1680 0 -393 -4
-857 -9 -1030 -10 -333 -12 -799 -5 -1038 4 -143 4 -143 -21 -162 -24 -19 -35
-20 -141 -11 -3 1 -3 85 0 189 7 254 6 1353 -3 1972 -3 278 -9 667 -11 865 -3
198 -7 684 -10 1080 -3 396 -7 745 -10 775 -2 30 -7 98 -10 150 -3 52 -8 120
-10 150 -8 94 -14 229 -20 395 -8 236 -24 443 -40 525 -3 14 -7 43 -10 65 -13
117 -87 430 -135 575 -38 112 -145 308 -283 515 -149 223 -234 318 -397 447
-30 23 -57 45 -60 48 -11 13 -210 160 -285 210 -82 55 -333 180 -443 220 -80
29 -98 18 -58 -35 18 -23 57 -50 116 -80 49 -24 113 -64 142 -88 29 -23 94
-71 143 -107 79 -56 180 -134 195 -150 3 -3 39 -33 80 -67 176 -143 376 -363
493 -540 184 -281 284 -554 383 -1045 8 -37 10 -191 4 -258 -2 -25 -14 -76
-27 -114 -13 -38 -23 -71 -23 -72 0 -2 13 -10 29 -19 37 -19 48 -60 57 -215 3
-52 7 -120 9 -150 2 -30 7 -125 11 -210 3 -85 7 -182 9 -215 20 -305 25 -2284
10 -3465 -5 -360 -9 -824 -9 -1030 -1 -206 -5 -385 -9 -397 -9 -25 -45 -36
-90 -28 l-32 6 0 1837 c0 1583 -4 2141 -20 2887 -2 77 -6 275 -9 440 -4 165
-9 337 -11 381 -10 172 -18 268 -30 369 -2 17 -7 59 -10 95 -12 128 -45 336
-64 400 -11 36 -27 95 -35 131 -8 36 -31 101 -50 145 -19 43 -37 91 -41 106
-8 32 -39 54 -88 63 -30 6 -37 4 -47 -15 -18 -34 -15 -95 8 -127 11 -15 23
-47 27 -71 4 -24 18 -71 32 -104 23 -57 53 -180 67 -273 3 -22 8 -51 11 -65 2
-14 6 -41 9 -60 5 -30 15 -83 30 -155 11 -58 28 -185 41 -315 24 -251 28 -330
31 -565 1 -126 6 -284 10 -350 11 -150 12 -3197 1 -3745 -5 -223 -10 -505 -12
-628 -7 -388 -13 -413 -118 -456 -44 -18 -71 -10 -82 24 -9 28 -37 11 -65 -38
-37 -66 -178 -138 -200 -102 -18 28 -15 1017 5 1630 10 325 17 580 21 755 4
242 4 1019 -1 1165 -9 291 -17 501 -20 550 -2 30 -6 129 -10 220 -3 91 -8 174
-10 185 -2 11 -4 29 -4 40 -1 28 -41 75 -68 80 -42 7 -47 -22 -47 -270 0 -255
8 -427 27 -525 19 -106 14 -1811 -8 -2370 -5 -145 -16 -374 -20 -440 -2 -30
-6 -136 -10 -235 -4 -99 -9 -205 -10 -235 -2 -30 -4 -145 -5 -255 -1 -185 2
-230 16 -278 3 -9 3 -30 -1 -46 -9 -44 -42 -57 -242 -96 -16 -3 -95 -23 -178
-45 -165 -43 -174 -45 -290 -60 -94 -13 -76 -10 -290 -54 -93 -20 -190 -38
-215 -41 -25 -3 -52 -7 -60 -10 -8 -2 -37 -7 -65 -10 -27 -3 -115 -16 -195
-30 -80 -13 -169 -27 -199 -30 -30 -4 -63 -9 -75 -11 -11 -2 -45 -6 -76 -9
-31 -3 -65 -7 -76 -9 -11 -2 -58 -7 -105 -11 -46 -4 -92 -9 -101 -10 -10 -2
-57 -7 -105 -10 -187 -13 -210 -15 -268 -20 -33 -2 -116 -7 -185 -11 -69 -3
-143 -7 -165 -9 -232 -17 -1987 -27 -2160 -12 -130 11 -280 16 -630 22 -170 3
-335 8 -365 10 -30 3 -88 7 -127 10 -40 4 -81 8 -91 10 -11 2 -43 6 -73 10
-30 3 -92 13 -139 20 -47 8 -103 17 -125 20 -22 3 -51 8 -65 10 -14 3 -43 7
-65 10 -22 4 -65 10 -95 15 -63 10 -91 14 -210 30 -217 29 -264 37 -525 96
-11 2 -74 13 -140 25 -66 11 -136 27 -155 35 -19 9 -59 20 -88 25 -30 4 -84
24 -121 43 -68 35 -146 60 -216 71 -22 3 -56 10 -75 15 -19 5 -46 11 -60 14
-115 23 -194 55 -205 83 -7 18 -7 118 0 233 5 91 5 585 -1 825 -11 492 -13
645 -13 1200 0 763 3 999 24 1775 12 430 28 689 50 811 2 9 6 40 10 70 3 30 8
65 10 79 2 14 7 52 10 85 3 33 9 94 14 135 5 41 8 116 7 165 -1 77 -5 97 -28
139 -29 53 -28 61 13 122 39 57 42 81 21 141 -28 80 -21 188 18 271 34 73 38
129 12 161 -37 47 -123 16 -157 -56 -16 -33 -16 -38 5 -101 l22 -67 -20 -50
c-11 -27 -34 -83 -51 -123 -33 -80 -39 -123 -23 -164 7 -18 9 -72 5 -155 -3
-70 -5 -173 -4 -228 6 -412 4 -530 -15 -810 -3 -54 -10 -542 -19 -1445 -3
-311 -8 -761 -10 -1000 -2 -239 -7 -712 -10 -1050 -7 -835 -11 -894 -60 -926
-18 -11 -32 -12 -78 -3 l-57 12 5 796 c11 1786 22 2880 30 3101 2 63 7 194 10
290 5 167 9 244 20 425 3 44 8 121 10 170 9 166 22 361 30 450 15 155 20 197
31 260 2 11 13 51 25 89 21 63 21 74 10 125 -16 70 -20 113 -10 126 15 21 28
94 34 195 9 149 13 188 25 250 16 79 19 97 29 175 11 93 13 277 3 292 -23 36
-93 -79 -147 -242 -22 -68 -29 -109 -40 -246 -3 -36 -8 -76 -10 -90 -34 -163
-51 -392 -60 -782 -3 -104 -7 -237 -10 -295 -3 -59 -7 -156 -10 -217 -3 -60
-7 -157 -10 -215 -14 -292 -16 -334 -30 -825 -14 -469 -29 -1350 -40 -2295
-13 -1160 -19 -1327 -46 -1433 -12 -45 -26 -53 -74 -37 -64 21 -67 36 -58 232
8 185 11 1419 3 1478 -2 19 -1 62 3 95 13 112 21 263 42 845 2 58 6 229 9 380
8 356 17 708 21 790 1 36 6 144 10 240 3 96 8 213 10 260 2 47 6 162 10 255
11 308 21 523 30 635 2 30 7 89 10 130 3 41 8 91 10 110 3 19 7 64 10 100 3
36 8 76 10 90 3 14 7 45 10 70 6 52 13 107 21 165 12 93 14 124 14 190 0 39 5
95 10 125 5 30 12 75 15 100 8 55 42 220 56 275 6 22 33 87 59 145 26 58 57
126 69 153 66 149 107 223 153 279 71 87 87 146 44 166 -18 8 -29 7 -52 -7
-96 -59 -227 -280 -308 -521 -45 -137 -101 -330 -110 -385 -2 -16 -18 -100
-35 -185 -17 -85 -33 -177 -35 -205 -8 -83 -16 -191 -21 -278 -2 -45 -7 -129
-10 -187 -3 -58 -8 -141 -10 -185 -2 -44 -6 -125 -10 -180 -3 -55 -8 -140 -10
-190 -8 -135 -15 -253 -20 -320 -2 -33 -7 -105 -10 -160 -9 -156 -16 -226 -31
-297 -3 -15 -21 -41 -41 -58 -33 -29 -36 -30 -53 -15 -37 33 -43 250 -15 495
2 19 7 64 11 100 3 36 8 72 9 80 2 9 6 58 10 110 3 52 8 115 10 140 2 25 7 81
10 125 12 157 16 191 31 254 8 36 17 108 19 160 7 148 16 313 19 346 2 17 6
66 10 110 4 44 9 91 11 105 2 14 6 50 10 80 3 30 8 66 11 80 8 45 12 65 19
110 26 170 147 508 257 721 102 198 210 327 483 574 169 153 236 230 218 249
-34 34 -181 -67 -406 -280 -85 -80 -182 -188 -235 -259 -4 -5 -26 -32 -49 -60
-43 -52 -100 -159 -178 -336 -25 -57 -50 -113 -55 -124 -55 -124 -143 -395
-156 -485 -3 -19 -7 -42 -9 -50 -6 -20 -10 -48 -35 -215 -21 -140 -26 -171
-35 -222 -2 -16 -7 -46 -9 -68 -3 -22 -7 -49 -10 -60 -5 -24 -14 -118 -21
-200 -2 -33 -7 -152 -10 -265 -6 -221 -13 -388 -19 -435 -2 -17 -7 -48 -9 -70
-18 -131 -28 -272 -43 -590 -4 -77 -8 -156 -9 -175 -2 -19 -5 -78 -9 -130 -3
-52 -8 -124 -11 -160 -14 -168 -28 -733 -50 -1950 -3 -173 -8 -394 -10 -490
-2 -96 -7 -283 -10 -415 -13 -565 -20 -676 -41 -692 -19 -14 -53 -9 -73 12
-14 14 -16 74 -15 493 1 835 20 2029 39 2497 11 273 16 379 20 460 3 50 8 128
10 175 4 90 13 251 20 360 2 36 7 117 10 180 3 63 7 131 10 150 2 19 7 80 10
135 4 55 8 125 11 155 2 30 6 93 9 140 3 47 8 110 11 141 7 78 13 143 19 219
3 36 7 85 10 110 7 72 14 150 20 215 3 33 7 76 10 95 7 62 15 134 20 185 3 28
7 66 10 85 2 19 7 55 10 80 3 25 8 56 10 70 3 14 7 45 10 70 11 91 54 266 110
450 47 153 198 490 255 570 11 16 20 31 20 35 0 15 146 220 209 292 123 143
456 418 622 513 41 23 108 64 149 90 41 26 91 51 110 55 19 4 48 16 65 27 34
23 70 66 61 75 -11 12 -105 5 -154 -11 -28 -10 -77 -34 -110 -56 -33 -21 -108
-66 -168 -100 -95 -55 -219 -134 -234 -150 -3 -3 -25 -21 -50 -40 -163 -123
-407 -370 -538 -543 -96 -126 -175 -280 -279 -541 -51 -131 -127 -351 -137
-400 -3 -11 -10 -37 -16 -56 -5 -19 -13 -48 -15 -65 -24 -139 -27 -159 -40
-270 -3 -27 -7 -66 -10 -85 -2 -19 -7 -60 -10 -90 -4 -30 -8 -66 -10 -80 -2
-14 -7 -56 -11 -95 -3 -38 -8 -78 -9 -87 -2 -9 -7 -54 -10 -100 -4 -46 -8 -96
-10 -113 -1 -16 -6 -66 -10 -110 -3 -44 -8 -96 -10 -116 -3 -20 -7 -70 -10
-110 -5 -68 -7 -101 -20 -229 -7 -74 -18 -218 -30 -390 -3 -41 -7 -106 -10
-145 -3 -38 -7 -117 -10 -175 -3 -58 -7 -132 -9 -165 -7 -95 -18 -432 -21
-645 -3 -236 -9 -281 -45 -345 -30 -54 -29 -59 13 -122 32 -46 32 -61 3 -168
-13 -52 -16 -176 -21 -895 -7 -1131 -15 -1535 -31 -1561 -7 -12 -63 -4 -78 11
-16 16 -12 661 9 1530 9 373 17 757 20 1045 4 375 13 668 30 985 12 231 15
303 20 420 3 69 7 172 10 230 3 58 7 159 10 225 3 66 7 147 10 180 2 33 7 98
10 145 3 47 8 101 10 120 6 49 15 119 20 160 5 36 10 84 21 205 10 97 10 99
18 200 4 50 9 101 11 115 2 14 6 50 10 80 9 72 14 106 25 155 5 22 14 69 19
105 6 36 13 74 15 85 2 11 7 40 11 65 25 162 122 483 208 685 101 240 208 419
337 569 111 129 213 233 320 326 41 36 77 67 80 70 3 3 40 31 82 63 106 79
204 136 403 233 199 96 209 101 425 189 91 37 179 73 195 80 86 37 265 98 325
110 52 11 237 67 275 84 59 26 58 46 -4 65 -122 36 -123 71 -4 116 54 21 251
74 318 85 17 3 105 21 197 40 92 19 209 41 260 50 51 9 104 18 118 21 14 2 41
7 60 10 19 2 46 7 60 9 14 3 48 7 75 10 28 4 57 8 65 10 8 2 107 16 220 30
113 14 221 27 240 30 19 2 67 7 105 11 39 3 77 8 85 9 8 1 49 6 90 10 41 4 83
9 93 11 10 2 45 6 78 9 33 4 70 8 81 10 11 3 46 7 77 11 31 3 90 17 131 31 41
13 92 26 113 28 51 6 67 20 67 61 0 47 29 64 107 64 34 0 74 -5 88 -12z m-925
-26 c0 -27 -168 -63 -360 -77 -164 -12 -189 -16 -305 -45 -136 -34 -177 -37
-196 -14 -11 14 -10 18 5 30 19 13 114 37 196 49 24 4 47 8 50 10 3 1 37 6 75
9 39 4 77 9 86 12 18 5 80 12 184 20 39 4 71 7 73 9 8 8 192 5 192 -3z m-1026
-127 c20 -20 11 -42 -25 -60 -26 -14 -29 -14 -39 4 -15 30 -12 59 8 64 31 8
40 7 56 -8z m4116 -11 c12 -12 12 -16 -2 -30 -19 -19 -57 -13 -83 13 -16 15
-15 17 7 29 25 14 55 10 78 -12z m334 -13 c44 -41 68 -51 124 -51 27 0 69 -6
95 -14 54 -16 142 -77 126 -86 -14 -9 -112 -2 -202 16 -49 9 -233 67 -244 76
-34 27 6 101 50 92 11 -2 34 -17 51 -33z m-4836 -56 c3 -3 -1 -16 -8 -30 -9
-18 -27 -27 -64 -35 -62 -14 -148 -10 -154 8 -10 32 198 85 226 57z m-401
-110 c55 -13 -20 -78 -103 -90 -27 -3 -107 -26 -179 -50 -71 -24 -150 -46
-174 -49 -24 -3 -65 -19 -90 -35 -25 -16 -75 -36 -111 -45 -36 -8 -109 -35
-162 -60 -124 -59 -142 -61 -146 -19 -4 42 30 76 96 93 26 8 85 29 131 47 46
18 91 35 100 37 79 15 107 24 184 58 101 44 258 92 332 102 27 4 51 8 52 9 5
6 50 7 70 2z m5809 -16 c17 -14 18 -45 2 -55 -17 -11 -69 -6 -85 8 -16 13 -17
40 -2 55 13 13 65 8 85 -8z m189 -89 c7 -11 -27 -13 -62 -4 -25 7 -31 29 -10
37 13 5 62 -17 72 -33z m161 -39 c29 -18 50 -56 35 -65 -10 -7 -112 32 -133
51 -14 13 -16 18 -6 25 22 14 72 9 104 -11z m149 -97 c17 -13 18 -16 5 -24
-25 -16 -59 -11 -69 9 -6 10 -7 21 -4 25 11 11 47 6 68 -10z m-6431 -24 c23
-23 -62 -71 -177 -101 -91 -23 -253 -85 -422 -162 -66 -30 -142 -64 -170 -76
-222 -100 -299 -133 -360 -155 -85 -32 -468 -259 -539 -320 -73 -63 -251 -240
-321 -320 -87 -99 -165 -203 -265 -351 -107 -159 -142 -200 -163 -192 -31 12
-31 55 -1 121 40 86 108 199 169 281 28 39 78 108 111 155 88 127 281 297 394
347 31 14 69 42 87 63 18 21 75 64 126 96 50 31 106 70 122 85 17 15 77 48
135 72 99 43 143 63 433 201 65 31 121 56 124 56 3 0 19 7 36 15 70 32 418
153 497 173 133 32 162 34 184 12z m6636 -1 c36 -22 51 -40 61 -74 9 -30 -9
-45 -52 -45 -63 0 -140 80 -117 123 12 24 65 22 108 -4z m-7606 -115 c33 -13
-15 -65 -108 -117 -158 -88 -496 -257 -515 -257 -46 0 -16 30 119 120 52 35
106 75 120 90 14 14 44 32 68 39 24 7 98 39 164 72 128 62 128 62 152 53z
m7869 -30 c4 -8 27 -24 50 -35 23 -12 74 -41 112 -64 39 -24 105 -57 148 -74
96 -38 143 -68 185 -116 26 -29 31 -40 21 -51 -25 -30 -105 3 -235 97 -44 32
-105 67 -134 79 -29 12 -67 30 -83 42 -16 11 -61 38 -100 58 -70 37 -92 64
-67 80 19 12 94 0 103 -16z m697 -440 c36 -24 88 -63 115 -88 28 -25 75 -57
105 -72 136 -65 351 -275 523 -511 110 -151 167 -248 167 -283 0 -22 -29 -60
-45 -60 -34 0 -78 64 -116 167 -12 32 -31 72 -42 88 -114 165 -456 522 -573
598 -82 53 -224 182 -224 204 0 16 -1 17 90 -43z m-9340 22 c0 -18 -49 -58
-61 -50 -14 8 -11 18 11 42 24 25 50 29 50 8z m-570 -544 c0 -20 -35 -62 -51
-62 -6 0 -8 7 -5 16 3 9 6 19 6 24 0 11 29 40 41 40 5 0 9 -8 9 -18z m-133
-164 c20 -27 -1 -78 -33 -78 -21 0 -24 5 -24 35 0 43 36 71 57 43z m-72 -177
c-14 -56 -45 -64 -45 -11 0 17 7 33 17 39 25 13 36 3 28 -28z m-69 -125 c3 -8
-1 -27 -9 -43 -17 -32 -75 -93 -89 -93 -29 0 -12 61 36 122 23 29 53 36 62 14z
m11172 -152 c34 -23 56 -76 116 -270 61 -198 99 -338 115 -429 6 -33 13 -69
15 -80 7 -34 25 -167 30 -220 16 -155 23 -233 30 -335 4 -47 8 -101 11 -120 3
-19 7 -78 10 -130 4 -52 8 -120 10 -150 15 -206 23 -348 30 -491 4 -64 8 -142
10 -175 17 -282 24 -866 13 -1009 -15 -176 -28 -196 -60 -84 -27 96 -32 151
-53 644 -3 66 -7 163 -10 215 -2 52 -7 160 -10 240 -8 207 -21 498 -30 655 -2
39 -7 117 -10 175 -3 58 -7 119 -10 135 -2 17 -6 72 -10 123 -4 52 -8 103 -10
114 -2 10 -7 49 -10 86 -6 65 -10 98 -21 172 -3 19 -7 49 -9 65 -4 29 -8 54
-20 125 -4 19 -8 44 -10 55 -6 48 -59 269 -86 360 -16 55 -46 131 -66 170 -25
49 -36 83 -36 113 0 60 27 77 71 46z m-11040 -76 c18 -18 15 -40 -18 -123
-118 -297 -250 -848 -285 -1185 -3 -30 -7 -62 -10 -70 -2 -8 -7 -67 -10 -130
-4 -63 -8 -135 -10 -160 -2 -25 -6 -92 -9 -150 -10 -159 -16 -251 -21 -290 -2
-19 -7 -71 -10 -115 -4 -44 -8 -100 -10 -125 -2 -25 -7 -99 -10 -165 -3 -66
-7 -160 -10 -210 -2 -49 -7 -171 -10 -270 -3 -99 -8 -241 -10 -315 -2 -74 -7
-218 -10 -320 -5 -177 -9 -289 -20 -610 -4 -135 -11 -377 -20 -720 -2 -80 -6
-237 -10 -350 -6 -208 -10 -401 -20 -905 -9 -412 -11 -425 -64 -425 -29 0 -29
1 -34 68 -5 75 1 1444 7 1592 2 52 7 205 11 340 3 135 8 292 10 350 2 58 6
206 10 330 3 124 8 286 10 360 3 74 7 209 10 300 3 91 7 215 10 275 3 61 7
184 11 275 3 91 7 190 9 220 2 30 6 114 10 185 3 72 8 157 10 190 13 161 15
196 20 275 12 178 30 376 41 435 2 11 6 47 10 80 3 33 7 65 9 72 2 7 7 61 11
120 5 94 17 182 39 286 50 244 194 738 240 828 33 63 90 90 123 57z m-438
-611 c0 -13 -6 -31 -13 -41 -12 -16 -14 -16 -26 -2 -19 22 -6 66 19 66 14 0
20 -7 20 -23z m-40 -200 c0 -58 -46 -97 -77 -66 -23 23 23 99 59 99 14 0 18
-8 18 -33z m-62 -285 c3 -58 1 -70 -17 -86 -20 -18 -21 -18 -30 5 -10 28 -7
66 10 127 16 59 32 40 37 -46z m-163 -282 c0 -34 -47 -52 -72 -27 -16 15 -15
18 2 37 27 30 70 24 70 -10z m150 11 c19 -60 -52 -156 -81 -110 -20 33 -8 102
20 121 21 15 55 8 61 -11z m-73 -377 c-2 -68 -12 -68 -12 1 0 32 3 56 6 52 4
-3 6 -27 6 -53z m-2 -164 c15 -28 11 -203 -7 -315 -34 -212 -91 -205 -79 10 3
61 8 121 10 135 3 14 10 54 16 90 17 97 37 123 60 80z m-46 -972 c21 -29 20
-92 0 -112 -30 -30 -54 -38 -60 -21 -9 21 2 109 16 135 14 26 25 25 44 -2z
m991 -193 c20 -39 43 -82 52 -98 17 -31 19 -84 9 -247 -9 -154 -16 -395 -31
-1100 -3 -135 -8 -330 -10 -435 -6 -231 -13 -522 -20 -830 -5 -217 -9 -380
-20 -765 -7 -253 -16 -403 -26 -422 -13 -25 -90 -25 -112 0 -27 31 -38 120
-23 206 3 21 8 309 11 640 5 644 14 1326 20 1521 5 189 15 440 20 555 3 58 7
168 10 245 13 369 16 426 20 515 9 188 16 239 37 266 11 14 22 24 24 22 2 -2
19 -35 39 -73z m-1021 -171 c11 -29 6 -100 -8 -120 -14 -18 -15 -18 -22 11
-14 57 -6 125 15 125 5 0 12 -7 15 -16z m6 -263 c0 -35 -27 -62 -41 -40 -5 8
-7 20 -4 27 3 8 5 20 5 28 0 8 9 14 20 14 15 0 20 -7 20 -29z m12137 -40 c24
-38 32 -405 49 -2181 9 -939 11 -867 -22 -935 -18 -39 -39 -54 -55 -38 -16 16
-19 101 -24 928 -5 767 -8 989 -20 1575 -4 221 -13 478 -17 540 -3 39 4 68 22
98 22 36 49 41 67 13z m-12153 -456 c0 -170 -13 -250 -37 -242 -19 6 -24 49
-22 178 3 138 12 224 27 253 22 42 32 -16 32 -189z m-11 -411 c-1 -46 -25 -73
-47 -54 -20 16 -20 53 0 92 15 28 17 29 32 14 9 -9 16 -31 15 -52z m-7 -256
c20 -38 15 -115 -12 -171 -35 -74 -69 -32 -62 77 9 117 41 158 74 94z m-17
-270 c23 -65 -6 -1130 -34 -1238 -2 -8 -9 -35 -16 -60 l-12 -45 -13 40 c-10
31 -11 115 -8 365 12 720 20 906 45 951 14 27 25 24 38 -13z m-2169 -1593 c22
-7 27 -27 35 -135 10 -122 40 -241 86 -336 60 -125 52 -185 -25 -199 -17 -4
-38 -7 -46 -9 -8 -1 -37 -6 -65 -11 -123 -19 -189 -42 -402 -142 -59 -27 -93
-36 -93 -23 0 18 77 84 165 142 91 61 114 73 240 124 86 35 120 65 105 93 -25
49 -143 43 -302 -13 -200 -71 -376 -181 -479 -299 -67 -77 -113 -122 -141
-138 -47 -26 -79 85 -41 141 38 58 154 150 187 150 8 0 27 14 43 31 92 103
119 118 313 179 74 23 179 55 233 72 74 23 102 37 114 55 16 24 16 26 -8 44
-44 34 -271 10 -499 -53 -47 -13 -93 -22 -102 -20 -46 9 50 91 137 117 30 8
57 20 61 26 12 20 69 37 144 44 133 11 214 31 232 59 4 6 8 32 8 58 0 28 5 48
13 51 13 5 60 1 87 -8z m-702 -117 c4 -18 -43 -58 -67 -58 -27 0 -94 -48 -128
-93 -44 -59 -163 -182 -194 -201 -23 -14 -27 -14 -47 0 -63 44 16 175 153 253
28 16 63 32 80 36 16 3 56 24 89 46 61 41 108 48 114 17z m15190 -190 c7 -7
12 -26 12 -43 0 -53 -41 -73 -74 -36 -38 42 22 119 62 79z m2129 -36 c35 -46
36 -57 11 -141 -12 -41 -11 -44 11 -62 13 -11 46 -25 75 -33 28 -8 96 -26 151
-41 202 -54 628 -240 660 -288 20 -32 10 -79 -26 -118 -27 -29 -29 -29 -63
-15 -19 8 -92 53 -163 101 -159 108 -288 171 -482 236 -216 72 -328 78 -300
16 17 -37 73 -67 197 -107 136 -43 217 -82 363 -173 57 -36 129 -75 160 -86
38 -15 70 -36 100 -69 71 -75 80 -119 34 -162 -53 -49 -92 -28 -320 168 -130
113 -196 156 -284 187 -36 13 -104 40 -150 60 -124 53 -201 49 -201 -9 0 -33
31 -57 185 -141 125 -68 459 -282 496 -317 8 -7 36 -31 63 -52 70 -57 88 -111
48 -143 -46 -37 -123 4 -288 151 -138 123 -289 232 -400 287 -146 73 -215 76
-227 12 -4 -23 2 -35 37 -69 24 -22 85 -65 137 -94 218 -124 373 -232 466
-326 61 -62 80 -90 93 -134 13 -46 -22 -80 -83 -80 -43 0 -75 20 -153 95 -193
187 -488 402 -584 425 -62 15 -103 -1 -108 -43 -4 -37 33 -69 194 -167 207
-126 301 -197 429 -325 96 -96 116 -132 90 -171 -15 -23 -22 -26 -53 -20 -38
6 -112 53 -172 108 -20 18 -80 74 -135 124 -55 50 -118 108 -140 128 -22 21
-60 48 -85 60 -25 13 -70 37 -100 54 -66 37 -130 55 -164 46 -65 -16 -30 -55
179 -204 88 -63 162 -116 165 -120 3 -3 30 -25 60 -50 226 -185 282 -259 229
-302 -21 -18 -78 -23 -112 -10 -10 4 -73 61 -140 127 -178 175 -305 284 -424
362 -118 79 -180 17 -87 -87 20 -22 71 -61 113 -87 95 -59 186 -130 295 -233
85 -81 128 -147 121 -185 -2 -11 -4 -25 -4 -31 -2 -22 -33 -24 -66 -4 -18 11
-95 83 -171 161 -250 253 -418 371 -469 329 -35 -29 -20 -48 164 -210 41 -36
90 -78 109 -95 20 -16 84 -77 143 -133 117 -112 154 -169 145 -223 -6 -40 -21
-49 -66 -44 -36 5 -39 7 -122 111 -73 93 -358 377 -418 417 -41 28 -65 37 -95
37 -79 0 -75 -9 61 -150 227 -234 255 -264 309 -330 58 -72 85 -119 85 -149 0
-56 -43 -23 -300 229 -218 215 -265 250 -332 250 -26 0 -50 -4 -53 -10 -3 -5
95 -112 218 -237 301 -307 337 -349 337 -397 0 -31 -32 -66 -61 -66 -34 0 -75
36 -156 138 -113 143 -323 347 -415 405 -50 31 -88 13 -88 -42 0 -19 53 -92
111 -152 13 -14 58 -61 100 -105 190 -199 268 -345 214 -404 -9 -10 -27 -17
-39 -16 -48 6 -80 40 -226 241 -52 72 -97 132 -100 135 -3 3 -29 34 -57 70
-67 85 -91 106 -131 115 -26 5 -36 3 -47 -12 -27 -35 -11 -103 37 -153 35 -38
156 -194 226 -292 65 -93 108 -173 106 -198 -1 -8 -2 -20 -3 -27 -2 -17 -52
-31 -97 -27 -50 4 -72 30 -144 169 -131 252 -292 403 -360 335 -36 -36 -29
-54 65 -166 48 -57 167 -227 242 -345 41 -66 36 -104 -18 -114 -45 -8 -89 32
-149 140 -97 171 -206 320 -248 336 -41 16 -72 -3 -72 -42 0 -34 111 -227 203
-352 81 -111 95 -186 39 -205 -64 -22 -89 5 -197 213 -38 72 -82 144 -99 160
-17 17 -36 42 -43 56 -12 28 -55 41 -91 28 -42 -16 -38 -103 8 -164 16 -22 59
-85 96 -140 37 -55 82 -117 100 -138 33 -36 38 -50 35 -92 -3 -27 -37 -55 -62
-50 -51 10 -87 46 -130 128 -41 81 -93 162 -114 182 -54 50 -80 60 -119 45
-55 -21 -33 -83 90 -250 82 -112 90 -131 75 -168 -7 -16 -24 -35 -37 -43 -39
-21 -71 4 -131 101 -120 197 -136 219 -168 236 -31 17 -34 17 -60 0 -22 -15
-25 -22 -21 -51 7 -43 36 -102 109 -227 31 -53 57 -109 57 -123 0 -14 -11 -37
-25 -50 -53 -54 -93 -24 -171 131 -32 64 -68 123 -79 130 -46 33 -115 5 -115
-47 0 -16 23 -74 51 -128 53 -102 70 -173 51 -207 -10 -17 -14 -15 -54 26 -24
25 -62 84 -84 131 -40 81 -98 149 -128 149 -16 0 -52 -39 -60 -65 -6 -22 27
-99 93 -210 46 -78 48 -90 24 -117 -41 -46 -99 -5 -172 119 -39 68 -78 103
-112 103 -24 0 -49 -33 -49 -64 1 -29 10 -50 74 -171 15 -27 26 -61 24 -75 -3
-21 -9 -26 -39 -28 -42 -4 -46 1 -103 101 -56 99 -115 137 -161 103 -31 -23
-21 -71 30 -146 51 -74 55 -107 17 -126 -49 -24 -81 -4 -150 96 -41 60 -73 75
-91 41 -6 -11 -12 -65 -14 -121 -1 -55 -5 -100 -8 -100 -4 0 -12 7 -20 16 -21
25 -92 70 -122 78 -23 5 -29 3 -36 -16 -4 -12 -5 -36 -1 -53 7 -34 6 -74 -3
-99 -11 -28 -46 -18 -95 28 -57 53 -95 71 -111 52 -6 -7 -11 -43 -10 -80 2
-106 -39 -128 -111 -56 -22 22 -43 40 -47 41 -5 0 -16 2 -26 4 -19 4 -57 -46
-57 -75 0 -38 -22 -88 -43 -97 -27 -13 -67 7 -90 46 -55 92 -101 95 -113 6 -8
-61 -16 -83 -35 -101 -20 -18 -21 -17 -60 29 -22 26 -49 47 -58 47 -23 0 -45
-26 -62 -72 -18 -51 -41 -54 -103 -12 -28 19 -58 34 -66 34 -29 -1 -50 -28
-59 -74 -9 -49 -25 -76 -46 -76 -7 0 -34 19 -60 43 -26 23 -56 45 -66 49 -25
10 -45 -12 -53 -59 -8 -49 -15 -60 -48 -68 -22 -6 -33 0 -71 39 -61 64 -79 61
-109 -15 -29 -77 -47 -91 -85 -63 -41 31 -82 86 -89 120 -12 60 -18 57 476
211 138 43 383 125 425 143 11 5 61 27 111 49 51 23 114 48 140 56 109 32 395
162 749 340 342 172 372 190 732 426 462 303 511 336 603 409 47 37 137 105
200 151 63 45 120 87 125 91 6 4 44 34 86 66 62 46 161 129 223 187 6 6 45 39
86 75 41 36 88 77 105 92 16 14 39 35 51 45 54 46 148 129 158 138 43 39 167
144 251 212 155 125 495 485 608 643 25 36 59 79 75 96 77 83 128 156 254 355
102 161 131 217 147 284 15 66 38 120 74 173 36 54 59 53 104 -6z m709 18 c61
-30 123 -84 111 -97 -14 -13 -151 -1 -216 20 -44 15 -54 54 -22 86 28 28 57
26 127 -9z m-2624 -32 c4 -7 7 -29 6 -48 -3 -28 -8 -36 -27 -38 -38 -6 -71 17
-71 49 0 47 67 74 92 37z m-449 -42 c6 -15 -36 -143 -52 -159 -7 -7 -15 -6
-24 2 -12 9 -12 21 -4 59 16 79 65 138 80 98z m-13817 -173 c10 -38 -3 -70
-32 -77 -56 -14 -90 22 -71 77 18 52 90 52 103 0z m13449 17 c3 -5 8 -26 10
-46 4 -47 -23 -76 -68 -72 -28 3 -32 7 -35 35 -5 49 22 93 58 93 16 0 32 -4
35 -10z m3600 -45 c61 -30 118 -55 127 -55 23 0 48 -38 48 -75 0 -39 -9 -51
-44 -65 -25 -9 -38 -6 -98 25 -70 35 -172 99 -196 122 -8 7 -22 18 -33 23 -31
17 -42 46 -23 64 32 33 101 21 219 -39z m-16827 18 c4 -27 -27 -62 -58 -65
-20 -3 -26 2 -28 23 -6 49 79 91 86 42z m1849 -36 c13 -40 -4 -71 -33 -60 -15
6 -29 41 -25 63 7 35 45 33 58 -3z m575 -9 c-3 -13 -7 -16 -12 -8 -4 7 -5 21
-2 32 3 13 7 16 12 8 4 -7 5 -21 2 -32z m168 17 c15 -18 8 -40 -20 -55 -17 -9
-22 -8 -29 12 -17 47 19 80 49 43z m10973 -14 c17 -17 26 -84 26 -195 0 -121
-9 -148 -40 -120 -10 9 -22 33 -25 53 -4 20 -8 45 -11 56 -8 41 -16 194 -10
209 6 16 43 14 60 -3z m-13412 -1 c31 -17 18 -70 -17 -70 -16 0 -27 34 -19 60
7 23 10 24 36 10z m-1737 -26 c10 -25 7 -33 -13 -44 -28 -14 -55 13 -41 41 13
23 46 25 54 3z m15624 -39 c17 -51 19 -203 3 -233 -16 -31 -49 -28 -63 6 -17
41 -16 235 1 256 22 26 45 15 59 -29z m1438 -20 c25 -38 8 -135 -23 -135 -28
0 -83 66 -83 98 0 61 73 87 106 37z m-14790 7 c19 -12 31 -43 27 -66 -9 -44
-96 -73 -123 -41 -16 20 -17 80 -1 99 14 16 77 22 97 8z m-1116 -22 c28 -15
99 -120 161 -235 29 -55 76 -138 105 -185 28 -47 59 -101 68 -120 9 -19 51
-71 94 -116 155 -163 188 -201 201 -232 8 -18 19 -32 25 -32 39 0 346 -299
346 -336 0 -7 33 -36 74 -63 85 -58 129 -94 284 -239 150 -140 149 -139 217
-199 148 -127 183 -154 223 -174 24 -12 55 -37 70 -56 15 -18 80 -77 145 -129
64 -53 117 -99 117 -104 0 -5 3 -15 6 -24 4 -11 -16 -25 -78 -55 -96 -45 -157
-85 -283 -186 -49 -39 -107 -81 -127 -94 -48 -28 -92 -25 -96 7 -5 31 22 70
104 155 82 84 147 136 214 173 50 27 67 57 55 95 -10 31 -56 28 -142 -11 -105
-48 -203 -118 -299 -215 -99 -99 -131 -116 -170 -90 -51 33 -25 105 72 197 68
65 87 78 190 137 104 59 131 82 140 117 15 58 -44 55 -183 -11 -92 -43 -136
-74 -245 -169 -109 -95 -154 -126 -185 -126 -30 0 -39 22 -23 60 18 43 178
193 297 277 106 76 143 113 143 145 0 10 -10 22 -22 27 -68 25 -251 -89 -437
-271 -53 -53 -111 -103 -129 -112 -39 -20 -81 -18 -96 6 -30 48 122 226 323
381 107 82 163 135 158 151 -6 17 -87 15 -132 -2 -85 -32 -166 -96 -373 -291
-67 -64 -131 -120 -142 -125 -31 -14 -50 0 -50 38 0 57 111 186 295 344 65 55
60 51 136 101 72 47 93 73 84 102 -8 25 -75 26 -130 0 -131 -59 -315 -191
-445 -318 -96 -94 -131 -114 -169 -93 -27 14 -55 56 -48 73 3 7 78 69 168 137
90 69 169 128 174 132 6 5 62 48 126 97 63 49 130 103 147 121 30 29 42 59 25
61 -5 0 -16 2 -26 4 -24 4 -152 -37 -220 -71 -142 -71 -252 -152 -395 -288
-46 -45 -97 -89 -113 -100 -57 -36 -104 4 -80 67 25 65 171 191 404 351 141
97 197 142 197 160 0 6 -20 32 -44 59 -31 33 -48 62 -56 97 -7 29 -20 55 -30
60 -20 11 -92 -8 -174 -45 -89 -41 -150 -67 -167 -70 -67 -14 -103 -33 -160
-87 -75 -70 -223 -171 -275 -188 -105 -35 -35 72 127 194 33 25 130 87 216
138 158 94 243 161 243 191 0 10 -12 23 -26 29 -42 20 -126 -5 -279 -82 -151
-75 -198 -86 -208 -49 -11 41 90 113 258 183 125 52 156 85 99 106 -63 24
-170 2 -309 -64 -117 -55 -208 -116 -325 -216 -98 -85 -167 -124 -198 -113
-42 16 -55 74 -26 121 48 81 461 342 539 342 13 0 56 14 96 31 110 46 132 72
87 103 -42 30 -163 14 -340 -45 -154 -51 -161 -54 -266 -135 -198 -154 -259
-187 -302 -164 -61 33 19 129 172 204 51 26 107 49 123 51 63 10 74 16 117 57
53 52 166 108 275 138 45 12 86 27 91 33 34 45 14 78 -49 80 -42 1 -126 -9
-159 -18 -8 -2 -26 -6 -40 -9 -35 -6 -100 -30 -148 -55 -50 -26 -84 -27 -104
-3 -40 45 -11 73 119 117 164 56 289 113 324 151 26 28 24 27 49 14z m505 -83
c26 -40 0 -114 -56 -161 -27 -23 -34 -25 -46 -14 -19 20 -19 108 1 146 28 54
75 68 101 29z m2656 -27 c25 -14 24 -46 -2 -60 -37 -20 -67 28 -37 58 15 15
15 15 39 2z m177 -2 c16 -16 15 -55 -2 -65 -15 -8 -24 -44 -25 -105 -1 -40
-23 -70 -46 -62 -24 10 -27 42 -8 97 19 56 20 60 22 94 1 21 25 53 40 53 4 0
12 -5 19 -12z m10277 -89 c3 -46 -2 -85 -12 -117 l-17 -47 -22 50 c-30 65 -29
86 3 157 32 72 43 62 48 -43z m-10620 46 c0 -11 -11 -25 -25 -32 -20 -10 -27
-9 -42 4 -35 31 -18 54 37 50 23 -2 30 -7 30 -22z m12581 10 c8 -20 -13 -45
-38 -45 -24 0 -34 26 -18 45 16 19 49 19 56 0z m-12061 -47 c16 -39 16 -182
-1 -198 -16 -16 -43 -1 -51 29 -11 39 -6 156 6 180 16 30 30 26 46 -11z
m-4361 -10 c-15 -48 -124 -153 -172 -165 -53 -13 -77 39 -38 83 18 21 185 103
209 104 5 0 5 -10 1 -22z m16589 -13 c16 -15 14 -55 -4 -102 -18 -47 -89 -12
-89 45 0 56 59 92 93 57z m-433 -25 c16 -9 17 -15 8 -40 -5 -17 -23 -37 -39
-45 -27 -14 -30 -14 -49 5 -21 21 -20 49 2 78 12 15 52 16 78 2z m-2576 -64
c0 -19 -6 -41 -13 -50 -13 -15 -15 -15 -32 0 -26 24 -24 69 3 88 28 20 42 7
42 -38z m-9040 28 c28 -28 3 -184 -30 -184 -36 0 -43 161 -8 187 22 16 19 16
38 -3z m-4284 -35 c16 -29 -11 -66 -90 -125 -36 -26 -89 -70 -118 -97 -43 -40
-58 -48 -84 -45 -41 4 -75 47 -60 75 21 38 284 211 324 212 10 1 22 -8 28 -20z
m12976 -35 c9 -36 -4 -89 -26 -109 -47 -42 -68 55 -26 120 19 29 43 24 52 -11z
m4985 20 c35 -42 11 -106 -88 -236 -131 -172 -216 -285 -236 -313 -30 -43
-189 -197 -220 -214 -15 -8 -30 -11 -34 -8 -7 8 23 69 47 95 8 9 26 30 38 47
13 16 63 73 112 125 100 108 130 144 130 157 0 6 30 59 67 119 36 60 77 132
91 159 40 83 66 102 93 69z m-14371 -19 c13 -16 17 -192 6 -292 -11 -108 -36
-145 -54 -80 -9 32 -7 258 3 307 17 88 21 94 45 65z m871 -22 c24 -63 12 -232
-18 -266 -15 -16 -18 -16 -32 -2 -19 19 -25 190 -9 254 13 50 43 56 59 14z
m10610 -15 c11 -41 7 -504 -6 -648 -14 -157 -26 -204 -52 -214 -38 -15 -44 20
-44 274 1 333 13 577 32 612 5 10 21 18 34 18 20 0 26 -7 36 -42z m1094 -2
c13 -19 14 -29 5 -45 -13 -25 -23 -26 -44 -5 -19 18 -21 45 -4 62 17 17 26 15
43 -12z m-539 -20 c6 -16 -13 -68 -29 -78 -33 -21 -107 5 -107 38 0 18 44 57
73 65 25 7 56 -6 63 -25z m-10993 12 c11 -31 -17 -123 -34 -112 -10 6 -12 84
-3 108 7 19 30 21 37 4z m-3479 -30 c23 -32 21 -113 -3 -137 -21 -21 -62 -18
-81 4 -24 29 -11 93 28 138 20 23 38 22 56 -5z m284 -52 c-7 -81 -45 -219 -72
-259 -37 -55 -106 -47 -106 13 0 87 136 336 172 314 6 -4 9 -31 6 -68z m557
45 c7 -13 -23 -41 -44 -41 -38 0 -49 54 -12 63 17 4 46 -8 56 -22z m2819 -1
c16 -16 19 -172 4 -199 -22 -41 -35 -35 -67 34 -50 105 -37 190 27 179 15 -3
31 -9 36 -14z m162 -17 c14 -14 15 -27 8 -77 -4 -34 -9 -108 -10 -166 -2 -58
-3 -114 -3 -126 -1 -11 -7 -29 -15 -39 -13 -18 -14 -18 -25 3 -7 13 -14 77
-17 145 -3 67 -9 148 -15 181 -9 50 -8 61 7 77 21 24 47 24 70 2z m-1594 -10
c41 -50 44 -116 6 -129 -29 -9 -33 0 -35 77 -2 71 3 82 29 52z m9062 -58 c15
-129 25 -600 15 -689 -8 -67 -31 -101 -46 -70 -13 26 -17 90 -16 304 0 421 24
649 47 455z m3542 67 c24 -16 37 -59 37 -123 0 -80 -15 -122 -50 -138 -34 -16
-51 0 -60 53 -14 86 -7 158 18 190 21 27 35 31 55 18z m-12055 -39 c14 -36 13
-152 -2 -189 l-11 -29 -19 23 c-20 25 -39 85 -44 138 -2 22 4 39 21 58 31 33
42 33 55 -1z m-2238 -7 c3 -8 -1 -40 -8 -73 -17 -70 -109 -343 -130 -384 -19
-35 -44 -37 -81 -6 -37 32 -34 72 10 157 20 37 49 107 67 156 41 120 71 164
108 164 16 0 31 -6 34 -14z m3457 -26 c6 -22 13 -122 17 -222 7 -209 6 -1629
-1 -1728 -2 -36 -5 -73 -5 -82 -1 -10 -8 -18 -16 -18 -36 0 -38 34 -41 540 -3
646 -13 810 -49 840 -37 31 -83 -20 -89 -97 -5 -58 -14 -79 -27 -66 -13 13
-21 79 -22 168 0 129 13 146 81 105 43 -26 61 -20 95 32 30 46 32 63 17 104
-21 55 -33 373 -17 437 12 43 44 36 57 -13z m6977 14 c18 -28 23 -101 10 -164
-18 -90 -26 -332 -16 -479 4 -71 -9 -89 -36 -48 -24 37 -33 138 -34 367 -1
183 9 316 25 342 10 16 34 7 51 -18z m128 20 c8 -4 23 -20 31 -37 14 -26 15
-61 9 -256 -9 -309 -15 -370 -40 -391 -28 -23 -36 51 -39 362 -3 328 -2 337
39 322z m538 -24 c35 -28 42 -56 23 -85 -21 -32 -41 -31 -71 1 -27 29 -31 54
-15 85 14 24 31 24 63 -1z m-7459 -28 c3 -10 8 -48 11 -87 3 -38 10 -85 15
-104 10 -36 -3 -67 -22 -55 -27 17 -60 144 -60 233 -1 40 45 50 56 13z m-1042
-4 c8 -16 12 -62 11 -143 -2 -174 -34 -272 -64 -198 -13 32 -18 293 -6 336 9
34 41 36 59 5z m1227 -30 c15 -39 -6 -111 -35 -122 -34 -13 -67 74 -45 120 15
33 68 34 80 2z m6432 6 c26 -32 13 -651 -15 -719 -18 -42 -23 -43 -36 -10 -26
68 -34 152 -34 370 0 217 8 341 25 361 15 19 44 18 60 -2z m-190 -25 c8 -33 4
-337 -6 -371 -8 -32 -26 -36 -46 -11 -16 18 -19 197 -6 293 15 109 41 150 58
89z m-6072 -57 c7 -32 5 -49 -8 -74 -9 -18 -23 -33 -31 -33 -39 0 -50 126 -15
165 18 19 18 20 31 1 7 -10 17 -37 23 -59z m-1924 48 c9 -29 3 -119 -9 -136
-10 -13 -14 -13 -31 0 -39 28 -22 156 21 156 7 0 15 -9 19 -20z m7842 -17 c4
-16 8 -260 8 -544 0 -536 -2 -558 -41 -573 -39 -15 -45 60 -48 557 -1 330 4
507 19 565 8 34 52 30 62 -5z m-7487 -13 c10 -20 15 -90 7 -120 -13 -52 -20
-70 -26 -70 -4 0 -17 21 -29 48 -32 70 -32 96 -1 136 25 31 35 33 49 6z
m-1970 -5 c16 -19 4 -35 -25 -35 -32 0 -42 20 -20 37 24 17 30 16 45 -2z
m3709 -9 c18 -21 28 -133 25 -279 -3 -161 -3 -583 0 -807 2 -174 -5 -246 -28
-268 -12 -12 -16 -11 -26 8 -15 29 -18 60 -25 350 -15 550 -11 944 9 997 7 17
30 17 45 -1z m-1225 -36 c27 -69 16 -143 -28 -179 -12 -10 -17 -8 -26 10 -22
41 1 209 29 209 5 0 16 -18 25 -40z m6781 28 c15 -45 22 -210 30 -688 9 -506
14 -534 91 -475 41 31 53 26 72 -32 26 -78 2 -283 -34 -283 -18 0 -42 48 -50
101 -4 24 -11 49 -16 56 -14 18 -48 11 -61 -12 -13 -24 -14 -213 -2 -435 15
-298 10 -380 -26 -380 -14 0 -26 13 -41 46 -18 42 -19 58 -13 168 4 66 6 299
5 516 -1 217 -2 582 -3 810 -2 394 4 587 18 610 9 14 25 13 30 -2z m4401 -91
c18 -38 30 -76 27 -85 -10 -28 -44 -61 -58 -56 -15 6 -32 66 -41 151 -11 109
17 105 72 -10z m-5747 69 c10 -11 8 -16 -7 -20 -30 -10 -55 3 -41 20 15 18 33
18 48 0z m1177 -18 c4 -18 9 -44 11 -58 4 -30 12 -763 17 -1530 4 -614 5 -600
-51 -600 -21 0 -23 4 -24 53 -10 686 -13 2011 -4 2091 3 33 8 63 11 68 12 19
33 6 40 -24z m-9344 -2 c15 -21 8 -76 -17 -128 -13 -29 -47 -113 -75 -186 -29
-73 -62 -145 -74 -159 l-23 -27 -27 27 c-23 23 -26 33 -21 65 9 62 138 372
167 403 26 29 53 31 70 5z m11051 -12 c-3 -8 -12 -14 -19 -14 -20 0 -30 30
-13 40 17 11 40 -7 32 -26z m-6935 -28 c-4 -40 -32 -42 -36 -3 -2 16 -1 36 2
44 11 27 37 -6 34 -41z m5059 7 c11 -53 7 -511 -4 -548 -13 -40 -40 -44 -54
-8 -11 28 -14 380 -4 473 10 101 16 120 35 120 14 0 21 -10 27 -37z m-4870 0
c14 -44 17 -148 17 -768 0 -597 -6 -833 -23 -879 -11 -26 -25 -34 -36 -17 -7
12 -12 267 -20 906 -7 502 -8 541 -20 668 -6 67 -5 81 10 97 27 30 61 26 72
-7z m7285 -13 c-1 -19 -9 -53 -16 -74 -12 -35 -14 -37 -21 -17 -9 28 -9 107 0
121 4 6 14 10 23 8 13 -3 16 -12 14 -38z m-10661 5 c9 -6 18 -19 21 -31 13
-53 -48 -75 -78 -29 -15 23 -15 27 0 49 16 25 29 27 57 11z m3729 -47 c13 -67
5 -566 -9 -615 -11 -40 -24 -53 -34 -35 -15 24 -34 643 -21 684 6 18 34 29 48
17 4 -4 12 -27 16 -51z m4161 9 c24 -91 32 -334 34 -1117 1 -377 5 -757 9
-845 l7 -161 -25 -23 c-34 -32 -56 -22 -57 26 -1 21 -3 63 -5 93 -7 138 -17
952 -17 1395 0 465 5 654 18 676 11 16 24 0 36 -44z m190 -11 c0 -17 2 -40 5
-51 5 -25 14 -716 18 -1440 4 -568 1 -616 -36 -623 -17 -3 -27 16 -34 66 -4
32 -15 905 -18 1516 -2 457 2 555 25 582 12 14 14 14 26 -2 7 -10 13 -32 14
-48z m3277 1 c-2 -20 -8 -32 -18 -32 -20 0 -27 74 -8 86 18 11 30 -14 26 -54z
m-3977 4 c0 -9 2 -25 5 -36 15 -71 25 -1694 12 -1970 -6 -127 -18 -185 -37
-185 -25 0 -29 81 -36 730 -14 1197 -17 1359 -31 1381 -7 12 24 80 43 94 21
16 43 9 44 -14z m358 11 c5 -10 8 -54 6 -98 -6 -139 -33 -200 -72 -161 -19 19
-27 217 -11 253 14 30 62 33 77 6z m-3840 -9 c12 -10 22 -27 22 -38 0 -11 -3
-126 -6 -255 -2 -129 -7 -361 -10 -515 -3 -154 -7 -291 -9 -305 -1 -14 -4 -34
-4 -45 -3 -30 -19 -5 -27 40 -16 96 -23 200 -23 340 0 83 -3 213 -7 290 -9
187 -13 450 -7 480 5 30 39 34 71 8z m3653 -5 c9 -17 13 -78 13 -220 0 -169
-2 -200 -16 -214 -15 -15 -18 -14 -37 6 -25 27 -30 58 -30 190 0 145 21 260
47 260 6 0 16 -10 23 -22z m-5578 -13 c7 -29 -2 -75 -15 -75 -19 0 -33 49 -21
75 6 14 16 25 21 25 5 0 12 -11 15 -25z m1591 -585 c0 -602 -2 -628 -39 -590
-24 25 -34 223 -37 760 -2 422 -2 419 24 429 53 21 52 30 52 -599z m492 597
c11 -7 17 -33 28 -122 13 -101 19 -436 20 -1052 0 -727 -1 -745 -39 -714 -27
22 -30 76 -41 706 -14 791 -17 887 -31 1077 -8 103 13 136 63 105z m-1367 -77
c0 -41 -29 -88 -48 -76 -15 9 -16 111 -1 139 l12 21 18 -23 c11 -14 19 -39 19
-61z m1554 71 c10 -16 16 -115 20 -322 3 -112 8 -375 12 -584 12 -565 9 -1176
-5 -1202 -11 -21 -47 -40 -57 -30 -5 5 -8 133 -19 847 -19 1201 -19 1254 -6
1279 12 21 45 29 55 12z m179 -34 c7 -37 0 -532 -7 -562 -2 -11 -5 -31 -5 -45
-2 -34 -17 -58 -30 -45 -26 26 -43 202 -43 455 -1 180 5 218 35 229 32 12 44
4 50 -32z m1571 34 c11 -17 16 -263 21 -1056 5 -713 11 -1095 16 -1121 5 -26
-3 -34 -33 -34 -18 0 -38 4 -45 8 -13 8 -23 628 -24 1512 0 489 4 630 22 678
9 22 33 30 43 13z m1052 -18 c25 -27 25 -31 19 -118 -4 -49 -8 -486 -10 -970
-1 -484 -6 -909 -10 -945 -17 -148 -45 -142 -55 12 -5 84 -4 333 2 628 1 25
-3 155 -7 290 -11 291 -12 1063 -2 1103 9 34 31 34 63 0z m4748 -5 c7 -33 8
-360 1 -493 -1 -38 -6 -158 -10 -265 -7 -206 -14 -262 -40 -328 -16 -39 -48
-63 -63 -47 -12 12 -6 188 13 390 2 28 7 82 11 120 3 39 7 84 9 100 3 32 14
173 20 270 12 170 17 213 26 248 12 46 24 47 33 5z m-7021 -5 c21 -24 25 -158
33 -1038 4 -379 7 -766 8 -860 2 -208 -5 -234 -61 -235 -22 0 -23 4 -24 78 -5
499 -18 1344 -26 1587 -12 411 -11 455 11 471 26 18 40 18 59 -3z m336 1 c15
-15 21 -77 27 -274 6 -204 6 -1697 0 -1800 -2 -36 -4 -73 -5 -83 -1 -13 -7
-17 -23 -15 -43 6 -48 37 -41 258 8 270 8 493 0 840 -18 774 -20 1060 -8 1074
13 15 36 15 50 0z m721 2 c12 -48 22 -1933 11 -2087 -5 -69 -16 -99 -36 -99
-39 0 -40 19 -40 1040 0 995 3 1137 26 1150 10 7 38 4 39 -4z m1029 0 c21 -25
24 -141 24 -911 -1 -922 -3 -975 -49 -975 -27 0 -32 43 -28 270 5 362 6 717 1
825 -3 62 0 121 7 155 7 32 10 70 5 90 -4 19 -10 66 -14 103 -3 37 -8 78 -11
90 -10 46 -6 284 5 325 12 44 37 56 60 28z m2945 -2 c30 -29 11 -124 -24 -124
-9 0 -24 8 -32 18 -13 16 -15 25 -10 74 2 18 28 48 42 48 5 0 16 -7 24 -16z
m-3636 -115 c7 -102 8 -1641 2 -1893 -2 -71 -6 -143 -9 -160 -8 -37 -34 -45
-62 -20 -16 14 -18 27 -14 78 5 67 13 637 20 1411 4 512 10 656 27 689 18 33
29 1 36 -105z m180 104 c5 -10 11 -45 13 -78 7 -116 4 -1622 -4 -1770 -6 -122
-5 -159 8 -201 28 -93 19 -140 -31 -163 -62 -28 -76 25 -45 170 7 32 9 82 6
115 -4 33 -8 439 -10 904 -2 763 2 1001 20 1030 10 16 34 12 43 -7z m159 -25
c5 -24 11 -108 13 -188 5 -208 3 -1703 -3 -1780 -3 -36 -6 -91 -6 -122 -1 -55
-21 -95 -41 -83 -9 6 -12 238 -14 1325 0 448 3 832 7 853 11 51 34 48 44 -5z
m700 -58 c9 -106 10 -1807 1 -1950 -9 -136 -14 -151 -47 -131 -19 12 -20 67
-20 796 -1 645 5 1132 15 1265 10 148 39 159 51 20z m-2612 62 c5 -30 14 -266
20 -557 3 -143 8 -363 10 -490 13 -583 14 -1015 3 -1045 -9 -27 -15 -31 -41
-28 l-31 3 -2 190 c-3 305 -15 1201 -19 1435 -4 238 -13 429 -21 441 -13 21 9
59 40 67 36 10 35 11 41 -16z m345 -8 c11 -22 15 -75 16 -234 1 -244 -12 -390
-36 -390 -33 0 -45 106 -44 408 0 192 3 235 15 243 20 13 32 6 49 -27z m723
12 c4 -6 6 -486 5 -1067 -3 -1124 -2 -1089 -49 -1089 -11 0 -20 3 -20 8 -6 36
-19 1234 -19 1707 0 367 3 430 21 451 13 15 48 10 62 -10z m-365 -3 c5 -10 13
-49 16 -88 9 -93 17 -694 18 -1365 1 -509 0 -550 -18 -614 -17 -61 -43 -100
-58 -85 -3 2 -7 310 -11 684 -9 1120 -16 1412 -31 1436 -8 13 34 49 56 49 10
0 23 -8 28 -17z m164 -10 c15 -36 19 -360 6 -413 -11 -42 -40 -55 -52 -25 -17
45 -27 306 -14 388 11 76 39 99 60 50z m7352 -66 c32 -65 33 -87 1 -117 -24
-22 -26 -23 -42 -7 -10 9 -23 36 -30 59 -14 46 -17 140 -6 151 11 12 49 -31
77 -86z m-11706 43 c5 -34 -16 -100 -32 -100 -12 0 -36 61 -36 92 0 42 63 50
68 8z m1739 -7 c12 -47 7 -221 -7 -238 -23 -28 -33 1 -36 100 -2 96 9 165 26
165 5 0 13 -12 17 -27z m8651 15 c33 -33 -14 -72 -58 -48 -26 14 -25 34 3 48
30 14 41 14 55 0z m-152 -33 c7 -28 0 -55 -15 -55 -5 0 -10 10 -13 23 -9 51
16 80 28 32z m-10410 -21 c4 -17 2 -29 -7 -35 -20 -12 -24 -11 -44 11 -22 25
-13 50 19 50 19 0 27 -7 32 -26z m5748 -6 c16 -74 21 -240 21 -758 0 -658 -3
-694 -54 -653 -15 12 -24 34 -28 68 -13 103 -3 1214 12 1327 7 57 39 67 49 16z
m-5928 0 c11 -35 12 -80 1 -110 -11 -33 -18 -35 -42 -8 -13 15 -16 30 -13 65
8 67 39 98 54 53z m9392 -8 c16 -30 10 -143 -8 -165 -20 -24 -39 0 -47 59 -13
96 -5 140 24 134 10 -2 23 -14 31 -28z m186 9 c13 -19 13 -26 -2 -63 -9 -22
-24 -49 -33 -59 -17 -18 -18 -18 -27 0 -21 40 -18 82 9 117 25 32 33 32 53 5z
m326 -18 c22 -41 3 -111 -30 -111 -14 0 -32 58 -25 82 15 49 38 60 55 29z
m-11290 -11 c14 -27 -19 -46 -46 -26 -15 12 -16 16 -5 30 18 22 38 20 51 -4z
m-1747 -9 c8 -31 -62 -159 -119 -218 -76 -77 -124 -70 -124 19 0 27 11 46 53
91 102 111 178 154 190 108z m4008 -8 c23 -59 4 -368 -23 -384 -7 -5 -16 -3
-19 4 -15 28 -27 375 -14 397 13 20 45 10 56 -17z m1582 7 c6 -24 -7 -86 -23
-105 -18 -21 -39 -7 -52 36 -16 54 0 89 41 89 20 0 30 -6 34 -20z m-1760 -7
c54 -61 12 -204 -43 -147 -25 25 -32 91 -15 131 16 37 34 42 58 16z m1228
-147 c10 -411 2 -545 -34 -533 -23 7 -27 68 -22 297 5 248 10 312 27 343 17
33 26 2 29 -107z m-2433 70 c27 -55 21 -126 -11 -126 -41 0 -64 75 -41 130 16
36 33 35 52 -4z m9554 -66 c-1 -61 -14 -82 -38 -58 -25 25 -30 95 -9 119 28
30 47 5 47 -61z m-8518 -61 c3 -99 -9 -199 -24 -199 -30 0 -45 111 -28 216 20
128 48 119 52 -17z m520 95 c26 -26 17 -135 -16 -201 -29 -58 -57 8 -53 121 4
89 30 119 69 80z m5928 -75 c19 -128 13 -1577 -7 -1719 -8 -55 -15 -70 -33
-70 -15 0 -18 13 -21 78 -6 117 -4 1533 3 1661 8 163 38 189 58 50z m4692 75
c11 -28 -3 -54 -30 -54 -29 0 -32 24 -7 52 20 22 29 23 37 2z m-1061 -28 c9
-7 17 -24 17 -38 0 -27 -52 -84 -69 -74 -17 11 -25 94 -11 111 15 18 39 19 63
1z m-519 -11 c8 -21 -11 -65 -28 -65 -23 0 -46 29 -39 48 12 33 56 44 67 17z
m-12584 -15 c0 -14 -31 -43 -97 -92 -54 -39 -102 -77 -108 -83 -22 -25 -173
-153 -218 -184 -57 -39 -107 -50 -126 -27 -33 40 30 103 264 265 183 126 285
169 285 121z m13273 -17 c21 -43 21 -133 -1 -161 -39 -49 -70 6 -60 108 5 47
21 80 39 80 5 0 15 -12 22 -27z m-11638 -33 c14 -43 -16 -110 -35 -80 -8 13
-4 75 6 91 9 15 22 10 29 -11z m2616 4 c18 -22 16 -102 -3 -120 -12 -12 -20
-13 -41 -3 -28 12 -31 22 -28 73 2 32 26 66 46 66 7 0 19 -7 26 -16z m-2812
-43 c-1 -33 -14 -68 -21 -55 -11 17 -19 73 -13 83 11 19 35 -1 34 -28z m2277
-6 c14 -76 -40 -127 -60 -57 -7 25 -5 41 7 67 20 42 44 38 53 -10z m-1893 15
c18 -26 10 -66 -16 -85 -18 -13 -23 -13 -39 2 -20 18 -24 73 -6 91 18 18 45
14 61 -8z m10387 0 c0 -13 -7 -20 -20 -20 -25 0 -27 27 -2 33 9 3 18 5 20 6 1
0 2 -8 2 -19z m187 -2 c12 -28 8 -65 -12 -95 -21 -32 -33 -29 -40 10 -5 26 -3
86 4 105 1 1 9 2 19 2 11 0 23 -10 29 -22z m-693 -16 c2 -4 7 -23 11 -43 5
-27 2 -41 -14 -59 -20 -25 -20 -25 -35 -5 -18 23 -20 68 -6 96 11 19 35 26 44
11z m-10865 -21 c29 -19 -10 -68 -44 -55 -20 8 -19 23 2 46 18 20 22 21 42 9z
m1991 -30 c15 -30 12 -104 -6 -130 -23 -32 -36 -14 -39 51 -4 83 20 125 45 79z
m6460 4 c21 -25 25 -157 25 -855 0 -665 -3 -782 -23 -802 -15 -15 -45 -5 -49
17 -9 53 1 1492 12 1600 2 22 4 43 4 48 1 12 18 8 31 -8z m-4339 -54 c0 -9 2
-36 4 -61 6 -85 19 -755 19 -1005 1 -256 -5 -306 -40 -319 -41 -16 -49 112
-52 846 l-3 556 23 16 c21 15 24 15 35 -1 7 -9 13 -24 14 -32z m6246 -166 c2
-199 -4 -248 -30 -253 -11 -2 -17 3 -18 15 0 10 -2 27 -5 38 -5 28 -17 211
-17 265 1 93 4 107 24 129 21 22 22 23 33 5 7 -12 12 -89 13 -199z m-8530 132
c4 -34 7 -68 6 -74 0 -7 -1 -20 -2 -28 -1 -21 -31 -31 -42 -14 -18 29 1 196
21 184 5 -3 12 -34 17 -68z m11284 16 c17 -39 18 -51 8 -70 -11 -21 -64 -41
-76 -29 -10 10 -6 88 6 119 16 41 39 33 62 -20z m-10766 -6 c12 -76 -4 -160
-30 -171 -27 -10 -32 67 -13 167 12 60 34 63 43 4z m1394 34 c21 -14 27 -74
25 -261 -3 -273 -13 -390 -34 -390 -15 0 -22 35 -26 125 -2 50 -6 146 -10 215
-11 171 -8 268 7 296 14 26 18 28 38 15z m7305 -7 c11 -28 6 -100 -7 -119 -14
-17 -15 -17 -34 2 -20 20 -23 47 -8 95 12 37 39 49 49 22z m-1224 -34 c29 -57
34 -160 34 -675 0 -441 -7 -706 -20 -739 -4 -9 -14 -16 -23 -14 -12 2 -17 19
-22 63 -7 77 -10 1385 -3 1396 9 15 13 11 34 -31z m371 -17 c0 -5 2 -17 5 -28
11 -50 4 -274 -11 -350 -2 -11 -4 -24 -4 -29 -2 -22 -42 31 -52 68 -27 96 -14
289 21 331 13 16 39 20 41 8z m-180 -67 c5 -131 4 -187 -6 -225 -13 -51 -29
-62 -46 -30 -14 28 -7 250 11 294 11 29 12 29 26 11 8 -11 15 -34 15 -50z
m-861 -6 c17 -62 20 -173 20 -660 1 -537 -5 -679 -27 -738 -15 -38 -33 -4 -40
75 -8 84 -8 807 0 958 3 61 2 133 -3 160 -18 98 -23 234 -10 250 19 23 48 1
60 -45z m-8180 30 c31 -20 7 -366 -27 -377 -19 -7 -37 102 -37 227 -1 143 15
181 64 150z m1551 -52 c9 -47 6 -398 -4 -437 -9 -35 -22 -44 -37 -26 -9 11
-14 51 -16 119 -1 57 -6 118 -11 137 -17 66 -4 205 24 248 19 30 33 17 44 -41z
m8009 40 c24 -26 26 -58 5 -97 -16 -32 -43 -47 -58 -32 -6 6 -12 35 -15 66 -7
80 24 110 68 63z m-8860 -9 c9 -16 9 -76 1 -106 -4 -12 -35 -31 -46 -27 -15 6
-30 57 -26 89 6 59 49 85 71 44z m-1057 -4 c31 -31 -16 -95 -54 -74 -28 15
-36 59 -14 76 24 17 50 17 68 -2z m2273 -27 c20 -63 -9 -215 -38 -206 -40 14
-50 157 -15 211 19 29 42 27 53 -5z m3492 -31 c15 -71 10 -523 -6 -559 -38
-91 -58 31 -58 353 1 228 8 275 40 263 7 -3 18 -29 24 -57z m5866 11 c13 -36
0 -78 -23 -78 -30 0 -42 52 -20 91 13 25 31 20 43 -13z m-9548 -52 c6 -35 -14
-98 -29 -93 -20 6 -32 93 -18 124 11 23 14 25 27 11 8 -8 17 -27 20 -42z m333
1 c34 -55 46 -118 30 -152 -35 -74 -82 -14 -78 99 4 97 14 108 48 53z m391 11
c10 -26 6 -936 -4 -983 -12 -54 -17 -65 -31 -65 -36 0 -40 37 -39 375 0 182 1
359 3 395 1 36 -2 88 -7 116 -18 108 2 184 50 184 10 0 23 -10 28 -22z m1224
-12 c22 -48 20 -114 -5 -156 l-21 -34 -14 39 c-30 89 -25 185 10 185 7 0 21
-15 30 -34z m684 -20 c13 -24 17 -71 22 -211 3 -116 9 -188 18 -202 18 -32 15
-77 -9 -107 -21 -26 -53 -34 -64 -16 -18 29 -30 189 -30 400 0 169 5 200 31
179 8 -7 23 -26 32 -43z m5373 -10 c5 -66 -6 -116 -25 -116 -32 0 -52 133 -25
166 12 15 15 14 31 -6 10 -12 19 -32 19 -44z m-8525 36 c13 -20 9 -81 -7 -97
-21 -21 -40 56 -23 99 8 21 17 20 30 -2z m9034 8 c27 -14 41 -64 29 -99 -14
-39 -60 -57 -83 -32 -26 28 -15 113 17 133 15 10 15 10 37 -2z m-9202 -38 c3
-27 0 -32 -17 -32 -16 0 -21 6 -21 28 0 53 33 56 38 4z m3843 -21 c0 -14 2
-55 4 -91 13 -299 20 -1005 11 -1105 -16 -171 -45 -227 -60 -115 -3 25 -9 332
-12 683 -5 592 -4 640 12 664 16 25 17 26 30 8 8 -10 14 -30 15 -44z m-5161
-25 c0 -20 -22 -36 -50 -36 -48 0 -68 44 -28 59 27 10 78 -5 78 -23z m10351
12 c14 -26 7 -164 -10 -181 -8 -8 -15 -7 -29 6 -23 24 -25 173 -2 187 22 14
28 12 41 -12z m-10241 -33 c0 -8 -9 -19 -21 -25 -37 -21 -69 28 -32 49 21 11
53 -3 53 -24z m10055 16 c13 -42 16 -70 16 -155 0 -94 -11 -120 -41 -90 -11
11 -15 40 -15 122 0 107 6 142 24 142 5 0 12 -9 16 -19z m-9515 -54 c0 -70
-58 -106 -78 -49 -12 34 6 84 34 100 28 15 44 -4 44 -51z m10709 -36 c-18 -53
-109 -51 -123 2 -8 31 10 54 51 65 34 8 40 7 60 -14 19 -20 20 -28 12 -53z
m-9682 4 c8 -22 17 -71 19 -110 4 -58 2 -75 -15 -102 -29 -46 -46 -42 -75 15
-27 53 -22 151 11 215 19 38 43 31 60 -18z m8153 35 c19 -10 19 -23 15 -278
-4 -271 -9 -337 -26 -348 -20 -12 -28 57 -35 305 -8 324 -4 348 46 321z m4424
-16 c25 -10 19 -43 -8 -50 -28 -7 -66 11 -66 31 0 21 41 32 74 19z m-13104
-39 c0 -18 -17 -28 -36 -21 -11 4 -12 10 -4 25 11 22 40 18 40 -4z m-161 -14
c23 -43 -12 -218 -43 -208 -6 2 -14 20 -18 41 -4 20 -15 50 -23 66 -21 41 -19
67 10 95 29 30 60 32 74 6z m1907 -53 c4 -13 8 -34 9 -48 2 -28 -21 -80 -35
-80 -15 0 -30 36 -30 75 0 65 40 103 56 53z m1062 -10 c18 -18 15 -84 -4 -103
-14 -14 -19 -14 -30 -3 -18 18 -23 57 -12 91 11 29 27 34 46 15z m6042 -3 c15
-18 16 -123 2 -137 -31 -31 -62 55 -42 116 13 39 21 44 40 21z m-7809 -21 c20
-38 17 -236 -4 -286 -34 -80 -66 -8 -61 136 4 99 11 146 25 163 16 19 24 16
40 -13z m-1390 -38 c23 -50 24 -80 4 -99 -36 -37 -83 21 -72 89 7 41 24 67 39
58 6 -4 19 -25 29 -48z m684 32 c18 -51 11 -138 -10 -138 -21 0 -34 94 -19
134 7 19 23 21 29 4z m-183 -15 c24 -21 26 -123 3 -123 -18 0 -35 39 -42 98
-5 46 7 54 39 25z m10293 -64 c-3 -58 -16 -89 -45 -104 -23 -12 -30 -12 -49 1
-40 29 -17 154 33 174 30 12 63 -26 61 -71z m-10967 39 c27 -27 9 -98 -24 -98
-18 0 -27 36 -19 76 6 35 22 43 43 22z m8877 -19 c26 -50 -2 -129 -45 -129
-38 0 -46 39 -23 115 15 53 45 59 68 14z m146 -20 c24 -119 37 -570 18 -612
-10 -22 -46 -43 -56 -33 -21 20 -19 601 2 666 10 30 28 19 36 -21z m698 -47
c8 -33 9 -56 2 -74 -18 -49 -44 -44 -54 10 -6 32 17 112 32 112 4 0 13 -22 20
-48z m-10293 -1 c21 -15 84 -43 138 -61 55 -18 158 -60 230 -93 72 -32 160
-70 196 -82 36 -13 106 -42 155 -65 77 -36 374 -151 605 -235 36 -12 87 -26
115 -30 27 -3 94 -22 150 -41 94 -33 216 -66 295 -79 19 -3 78 -17 130 -31 83
-21 306 -73 380 -88 14 -2 104 -21 200 -41 96 -19 189 -38 205 -41 17 -3 46
-9 65 -14 19 -5 80 -16 135 -25 126 -20 144 -24 175 -30 28 -6 139 -24 185
-30 17 -2 86 -13 155 -24 69 -11 145 -23 170 -26 25 -3 52 -8 60 -10 8 -2 42
-7 75 -11 33 -3 69 -8 80 -9 11 -2 43 -6 70 -9 28 -4 66 -8 85 -11 19 -3 58
-7 85 -10 28 -3 61 -8 75 -10 14 -2 50 -7 80 -10 30 -3 66 -8 80 -10 14 -2 52
-6 85 -10 33 -3 89 -10 125 -15 36 -5 103 -12 150 -16 47 -3 93 -8 103 -10 10
-2 64 -6 120 -9 56 -3 120 -7 142 -10 22 -2 90 -7 150 -10 61 -3 133 -8 160
-10 28 -2 113 -7 190 -10 77 -4 167 -8 200 -10 33 -2 128 -7 210 -10 83 -3
182 -8 220 -10 407 -23 631 -23 920 0 28 2 91 7 140 10 50 3 122 7 160 10 39
2 115 7 170 10 55 4 123 8 150 10 28 2 86 7 130 10 83 5 178 15 207 20 9 2 38
7 65 11 26 3 56 8 67 10 10 2 44 6 75 10 31 3 59 8 62 10 3 1 28 6 55 9 27 4
90 13 139 21 50 7 108 16 130 19 22 4 51 8 65 10 14 3 54 7 90 11 36 3 67 7
70 9 3 2 34 6 70 10 36 3 72 8 80 10 8 2 40 7 70 10 124 14 254 37 343 60 34
9 73 19 87 21 14 2 59 11 100 19 41 8 91 17 110 20 19 3 92 19 162 35 69 16
172 39 229 50 131 27 222 59 444 157 99 44 195 85 212 92 65 26 112 -13 79
-64 -14 -21 -78 -57 -156 -87 -14 -5 -63 -31 -110 -58 -47 -27 -141 -74 -210
-105 -69 -32 -154 -74 -190 -95 -36 -21 -94 -50 -130 -65 -36 -15 -83 -35
-105 -45 -316 -140 -511 -220 -560 -230 -50 -10 -196 -62 -280 -101 -146 -66
-587 -187 -778 -214 -27 -3 -59 -8 -70 -11 -12 -2 -42 -7 -67 -10 -25 -3 -48
-8 -51 -10 -3 -1 -37 -6 -75 -9 -38 -4 -71 -9 -74 -10 -3 -2 -42 -6 -85 -10
-44 -3 -87 -8 -95 -10 -8 -2 -44 -7 -80 -10 -96 -9 -194 -21 -265 -34 -75 -13
-87 -9 -114 38 -35 59 -57 72 -77 46 -8 -11 -17 -31 -20 -45 -22 -99 -86 -141
-169 -110 -24 9 -26 13 -23 73 1 34 -1 68 -5 74 -11 17 -63 26 -86 14 -26 -15
-41 -70 -31 -116 13 -56 -5 -63 -210 -80 -270 -24 -1019 -24 -1435 0 -145 8
-263 16 -295 20 -19 2 -60 7 -90 11 -30 3 -64 7 -75 9 -11 1 -47 6 -80 10 -33
3 -71 9 -85 11 -14 2 -61 8 -105 14 -131 17 -148 19 -185 24 -19 3 -55 8 -80
11 -25 4 -81 12 -125 20 -44 7 -100 16 -125 20 -50 7 -65 9 -165 26 -38 6 -86
13 -105 16 -122 15 -250 41 -425 84 -226 56 -229 57 -380 109 -60 21 -168 55
-240 74 -71 20 -175 54 -230 76 -55 21 -127 45 -160 53 -76 19 -779 301 -900
362 -49 24 -106 50 -125 57 -118 43 -795 403 -970 516 -47 30 -125 80 -175
110 -49 31 -115 76 -145 102 -30 25 -77 59 -104 74 -57 33 -89 63 -81 76 11
18 51 10 91 -19z m9269 -42 c20 -62 26 -444 11 -644 -7 -87 -20 -106 -51 -74
-21 21 -20 -6 -27 616 -1 122 8 151 42 133 10 -6 22 -19 25 -31z m-8112 -21
c43 -16 35 -44 -20 -68 -56 -25 -92 -28 -104 -9 -15 24 -10 77 8 88 19 10 73
5 116 -11z m701 13 c3 -5 -1 -14 -10 -21 -11 -10 -18 -10 -27 -1 -9 9 -9 14 3
21 19 12 27 12 34 1z m8255 -40 c17 -31 22 -80 11 -101 -13 -24 -52 -26 -70
-5 -15 18 -15 81 0 119 8 23 13 25 30 16 11 -6 24 -19 29 -29z m-7283 -8 c3
-16 7 -34 10 -41 6 -22 17 -202 19 -332 1 -120 -7 -179 -26 -181 -5 -1 -15 -2
-21 -3 -35 -5 -37 13 -33 227 3 199 12 332 22 350 9 15 23 6 29 -20z m1064 12
c15 -18 19 -106 20 -418 1 -125 5 -241 10 -258 7 -22 5 -41 -4 -64 -15 -36
-56 -69 -69 -56 -8 8 -17 206 -21 477 -4 267 18 375 64 319z m181 -35 c26 -92
10 -340 -22 -340 -24 0 -43 119 -43 272 0 86 11 118 39 118 7 0 19 -23 26 -50z
m-2630 0 c9 -19 19 -62 23 -95 5 -44 12 -64 27 -76 27 -20 23 -63 -7 -67 -26
-4 -81 48 -101 96 -19 45 -20 110 -4 150 17 41 40 39 62 -8z m861 -27 c15 -36
15 -348 0 -385 -10 -23 -15 -26 -34 -19 -29 10 -35 51 -31 193 4 172 16 238
44 238 5 0 15 -12 21 -27z m-334 -48 c26 -76 2 -245 -34 -245 -30 0 -61 87
-68 188 -2 35 2 50 22 73 34 42 63 36 80 -16z m1029 37 c21 -13 29 -84 28
-237 -2 -163 -11 -259 -26 -287 -17 -31 -35 -21 -45 24 -8 35 -7 376 1 438 9
72 14 80 42 62z m-1738 -34 c16 -45 -13 -84 -44 -58 -28 24 -12 80 22 80 8 0
17 -10 22 -22z m350 -4 c6 -14 14 -50 17 -78 5 -42 2 -56 -11 -70 -38 -38 -79
9 -71 80 11 89 41 120 65 68z m1580 -26 c25 -124 32 -448 11 -473 -16 -20 -44
-19 -61 1 -20 24 -15 411 6 479 3 8 7 22 10 30 9 30 24 14 34 -37z m2441 37
c18 -22 8 -110 -16 -136 l-19 -21 -17 22 c-20 24 -24 84 -8 124 11 29 41 34
60 11z m-3838 -32 c12 -45 -3 -95 -33 -110 -20 -11 -26 -10 -37 4 -13 18 -9
73 9 120 14 36 50 28 61 -14z m1911 -5 c3 -13 9 -45 13 -73 3 -27 8 -53 10
-56 2 -4 7 -56 10 -115 7 -121 -3 -153 -44 -140 -30 10 -44 61 -33 123 6 27
11 91 12 141 2 101 7 142 19 142 4 0 10 -10 13 -22z m883 -29 c30 -59 14 -237
-20 -226 -26 8 -41 63 -41 148 0 117 24 148 61 78z m-3477 -3 c12 -31 2 -58
-22 -54 -30 5 -43 31 -29 62 13 29 39 26 51 -8z m1037 -13 c19 -103 -16 -262
-51 -233 -43 35 -47 191 -7 247 28 39 49 34 58 -14z m6776 -20 c9 -28 13 -99
12 -263 -1 -243 -9 -289 -43 -270 -32 17 -42 85 -42 291 0 149 7 254 17 271
14 22 43 6 56 -29z m509 -5 c20 -70 17 -162 -5 -187 -43 -47 -57 -23 -52 91 6
131 34 178 57 96z m843 -11 c10 -7 18 -29 20 -52 4 -65 -37 -131 -59 -94 -11
17 -12 102 -2 132 10 30 16 32 41 14z m-324 -37 c7 -14 6 -23 -6 -34 -18 -19
-20 -19 -45 -6 -23 13 -24 33 -4 54 18 18 41 11 55 -14z m-9750 -20 c25 -20
40 -40 40 -54 0 -26 -34 -60 -70 -71 -61 -18 -211 -146 -316 -269 -50 -60 -51
-60 -82 -47 -35 15 -62 50 -62 81 0 26 168 195 276 277 56 42 85 72 93 94 10
29 13 31 46 26 20 -3 54 -20 75 -37z m237 -149 c51 -38 107 -74 126 -80 34
-12 73 -62 64 -85 -3 -7 -45 -35 -93 -62 -59 -33 -119 -79 -185 -141 -54 -51
-105 -93 -112 -93 -8 0 -19 6 -26 13 -25 31 8 84 127 205 83 85 112 130 90
143 -41 26 -113 -16 -237 -139 -125 -123 -160 -151 -184 -147 -28 5 -47 25
-47 52 0 56 58 120 170 187 72 44 125 95 155 153 25 47 37 62 50 62 6 1 52
-30 102 -68z m9329 24 c-3 -9 -11 -15 -18 -13 -13 5 -20 37 -11 51 9 15 36
-20 29 -38z m349 15 c19 -30 -27 -72 -52 -48 -11 11 -10 17 3 36 16 23 39 29
49 12z m-3281 -17 c13 -34 20 -131 19 -266 -2 -265 -23 -338 -79 -276 -21 24
-25 113 -10 269 5 47 9 124 11 172 2 86 13 118 40 118 7 0 16 -8 19 -17z
m3114 -37 c8 -63 -50 -107 -63 -48 -9 43 10 84 38 80 16 -2 23 -11 25 -32z
m-6379 -15 c13 -23 5 -192 -10 -239 -11 -34 -51 -54 -71 -34 -9 9 -13 166 -4
180 2 4 7 25 10 46 4 22 11 45 17 53 16 19 47 16 58 -6z m2060 -20 c16 -29 24
-112 24 -256 1 -114 -1 -135 -19 -165 -14 -25 -27 -35 -45 -35 l-24 0 2 215
c1 118 5 225 8 238 7 27 40 29 54 3z m-1026 -31 c14 -28 17 -47 11 -95 -3 -33
-7 -104 -8 -158 -2 -102 -11 -123 -44 -113 -31 10 -47 59 -33 105 6 21 11 87
11 147 0 60 3 119 6 132 9 32 35 24 57 -18z m4853 -64 c8 -21 -22 -73 -43 -73
-41 -1 -57 41 -27 71 19 20 63 21 70 2z m-5371 -113 c2 -99 -21 -138 -65 -110
-46 28 -34 167 18 196 30 17 45 -11 47 -86z m-3305 42 c20 -12 107 -58 195
-102 88 -44 192 -97 230 -116 39 -20 120 -58 180 -83 61 -26 133 -57 160 -69
28 -13 84 -37 125 -55 84 -36 131 -56 175 -75 141 -61 502 -193 670 -245 22
-7 54 -18 70 -26 104 -45 413 -136 675 -198 107 -26 256 -64 330 -85 136 -39
314 -78 440 -96 321 -47 438 -63 580 -79 25 -3 101 -12 170 -21 166 -21 197
-25 250 -29 291 -27 1538 -28 2040 -1 125 7 256 15 320 20 36 3 94 8 130 10
36 3 88 7 115 10 28 3 73 8 100 11 135 14 284 38 436 70 64 13 141 26 173 28
51 4 60 2 86 -22 33 -31 37 -44 26 -89 -7 -32 -56 -83 -79 -83 -7 0 -25 11
-41 25 -16 14 -33 25 -37 25 -23 0 -42 -17 -61 -54 -11 -22 -26 -44 -32 -48
-26 -17 -68 -6 -129 35 l-64 43 -51 -47 c-45 -41 -56 -47 -84 -42 -18 3 -38 9
-44 14 -28 23 -94 10 -124 -25 -18 -23 -52 -20 -92 7 -66 45 -82 43 -137 -13
l-49 -50 -50 59 -50 60 -32 -41 c-53 -65 -133 -87 -175 -48 -20 19 -45 25 -87
21 -9 0 -26 -22 -38 -47 -13 -25 -33 -51 -47 -57 -21 -9 -29 -6 -71 36 -26 26
-55 47 -64 47 -13 0 -65 -55 -95 -99 -1 -2 -27 23 -58 55 l-55 59 -17 -25 c-9
-14 -32 -39 -50 -57 -30 -29 -37 -31 -58 -21 -14 6 -25 15 -25 20 0 4 -9 17
-20 28 -19 19 -22 19 -50 5 -16 -8 -44 -33 -61 -55 l-33 -41 -48 48 -49 48
-74 -3 c-65 -2 -77 0 -92 18 -10 11 -23 20 -30 20 -6 0 -31 -26 -55 -57 -65
-86 -97 -84 -143 11 -30 62 -52 59 -108 -14 -26 -33 -53 -60 -61 -60 -20 0
-43 25 -67 72 -11 21 -26 41 -34 44 -7 3 -32 -8 -55 -25 -48 -35 -56 -33 -125
26 l-40 34 -35 -43 c-60 -73 -101 -109 -115 -101 -7 5 -28 31 -47 58 -43 66
-70 70 -97 17 -22 -44 -65 -67 -94 -50 -9 5 -20 27 -23 49 -4 22 -15 50 -24
62 -16 19 -21 20 -41 8 -13 -7 -46 -39 -73 -72 -27 -32 -52 -59 -55 -59 -4 0
-13 21 -20 46 -17 58 -55 104 -86 104 -27 0 -37 -9 -65 -57 -11 -18 -27 -33
-37 -33 -26 0 -63 41 -63 70 0 36 -27 70 -55 70 -28 0 -56 -32 -79 -95 -10
-25 -23 -44 -30 -42 -20 6 -54 66 -61 107 -8 45 -27 61 -67 53 -22 -4 -31 -16
-50 -65 -42 -109 -91 -111 -108 -3 -9 59 -34 95 -65 95 -7 0 -35 -20 -63 -45
-57 -51 -92 -59 -92 -21 0 42 -18 75 -44 82 -29 7 -57 -7 -108 -54 -47 -44
-70 -59 -85 -56 -7 1 -18 2 -24 3 -8 1 -9 24 -4 76 11 119 -23 138 -98 55 -68
-75 -72 -73 -72 50 0 91 -2 105 -17 108 -24 5 -65 -42 -99 -113 -38 -80 -62
-105 -102 -105 -61 0 -70 31 -38 140 19 69 15 105 -14 117 -40 15 -108 -56
-120 -126 -9 -51 -22 -69 -55 -76 -39 -9 -65 1 -76 28 -13 29 -10 47 19 136
24 72 26 125 6 145 -10 11 -17 3 -98 -114 -49 -71 -104 -135 -115 -135 -2 0
-10 6 -19 14 -24 19 -21 42 12 124 40 99 46 131 26 151 -9 9 -22 16 -29 16
-28 0 -78 -61 -120 -146 -47 -95 -65 -113 -91 -88 -22 23 -19 60 15 147 43
111 39 152 -12 126 -42 -21 -89 -73 -125 -137 -41 -74 -69 -95 -113 -88 -68
10 -73 42 -20 126 47 74 68 155 45 178 -21 21 -130 -70 -165 -138 -10 -20 -30
-41 -43 -47 -24 -11 -66 -7 -68 6 0 3 -2 14 -4 24 -2 11 11 35 29 55 18 20 38
47 45 59 17 32 13 78 -7 96 -17 15 -20 15 -42 0 -12 -9 -39 -35 -59 -57 -20
-23 -58 -64 -86 -93 -44 -45 -53 -50 -74 -42 -21 8 -23 14 -19 52 3 24 23 73
48 114 23 40 40 81 38 90 -7 38 -39 24 -121 -55 -45 -44 -97 -87 -115 -96 -17
-9 -33 -17 -35 -19 -9 -5 -37 27 -37 42 0 9 27 50 60 91 70 88 95 132 87 154
-16 42 -111 -7 -167 -87 -16 -23 -34 -47 -40 -54 -5 -7 -10 -16 -10 -20 0 -13
-55 -43 -77 -43 -23 0 -43 18 -43 40 0 9 25 56 56 105 61 96 79 157 49 169
-17 6 -36 -3 -75 -36 -9 -7 -47 -49 -85 -93 -98 -115 -141 -139 -165 -94 -16
28 -2 63 54 140 70 96 84 159 34 159 -15 0 -53 -32 -118 -99 -115 -119 -150
-141 -164 -104 -11 28 15 85 80 175 62 87 72 120 41 126 -30 6 -82 -28 -172
-113 -100 -93 -136 -115 -160 -95 -9 7 -15 29 -15 50 0 40 34 95 106 169 44
46 58 86 38 106 -24 24 -64 0 -162 -96 -132 -130 -190 -163 -222 -124 -26 32
6 90 111 200 66 69 93 103 102 128 9 24 62 45 95 39 15 -3 43 -15 62 -27z
m2954 0 c28 -21 23 -72 -9 -104 -26 -25 -26 -26 -41 -7 -19 26 -18 91 2 110
19 19 24 19 48 1z m520 -32 c7 -24 -1 -103 -13 -136 -22 -56 -71 -40 -76 24
-6 76 71 172 89 112z m2768 -79 c10 -16 20 -55 24 -85 6 -55 5 -57 -31 -98
-35 -38 -40 -41 -54 -26 -24 24 -23 181 2 219 22 32 36 30 59 -10z m-5637
-709 c7 -39 -6 -59 -34 -50 -26 8 -28 50 -4 77 19 22 31 14 38 -27z m9205 25
c9 -17 7 -20 -16 -26 -33 -8 -52 9 -34 31 17 21 37 19 50 -5z m248 -168 c-22
-29 -33 -32 -45 -15 -19 25 11 57 39 42 16 -9 17 -13 6 -27z"/>
<path d="M10550 16279 c-33 -13 -40 -26 -40 -76 0 -37 3 -43 25 -49 57 -14
114 15 115 59 0 19 -51 78 -67 76 -4 0 -19 -5 -33 -10z"/>
<path d="M10753 16220 c-18 -11 -33 -23 -34 -27 0 -5 -2 -16 -4 -26 -2 -10 7
-30 19 -44 45 -53 118 2 100 75 -11 45 -35 51 -81 22z"/>
<path d="M10965 16183 c-18 -18 -19 -43 -2 -67 10 -14 18 -15 38 -7 15 5 29
17 33 26 15 39 -40 77 -69 48z"/>
<path d="M11152 16174 c-31 -21 -29 -62 2 -70 14 -3 34 -3 46 1 27 9 24 52 -5
71 -18 12 -24 11 -43 -2z"/>
<path d="M11304 16135 c-8 -33 0 -51 26 -58 14 -4 29 2 42 15 l20 20 -23 24
c-29 31 -57 31 -65 -1z"/>
<path d="M7103 15969 c-44 -16 -36 -89 10 -89 31 0 47 18 47 52 0 32 -26 49
-57 37z"/>
<path d="M6393 15610 c-24 -14 -33 -27 -33 -46 0 -55 43 -94 83 -73 67 35 88
93 45 123 -30 21 -56 20 -95 -4z"/>
<path d="M6397 15409 c-9 -5 -23 -22 -31 -37 -12 -23 -12 -32 -1 -59 26 -62
67 -64 118 -3 22 26 24 34 16 59 -15 42 -65 62 -102 40z"/>
<path d="M6177 15310 c-29 -23 -35 -56 -16 -93 16 -29 26 -35 53 -30 53 11
115 98 88 125 -6 6 -30 13 -54 15 -34 4 -50 0 -71 -17z"/>
<path d="M5837 15149 c-38 -10 -93 -53 -100 -78 -8 -34 18 -60 55 -54 62 10
148 64 148 93 0 31 -56 52 -103 39z"/>
<path d="M5739 14737 c-103 -55 -212 -117 -227 -129 -32 -27 -72 -92 -72 -119
0 -37 28 -53 62 -35 13 7 59 40 101 73 41 34 97 69 124 78 83 30 120 98 75
138 -17 16 -21 15 -63 -6z"/>
<path d="M14122 14124 c-53 -37 1 -124 59 -93 43 23 40 91 -5 103 -29 8 -29 8
-54 -10z"/>
<path d="M5412 14070 c-35 -33 -70 -93 -78 -135 -7 -38 -7 -38 22 -31 40 10
109 65 129 101 10 17 15 41 14 55 -5 34 -55 40 -87 10z"/>
<path d="M5256 13829 c-33 -38 -33 -45 1 -54 22 -5 32 -1 50 20 13 14 23 35
23 46 0 31 -44 24 -74 -12z"/>
<path d="M5430 13548 c-40 -28 -70 -81 -70 -126 0 -50 46 -92 99 -92 88 0 117
35 108 132 -5 53 -10 66 -34 85 -35 29 -61 29 -103 1z"/>
<path d="M14021 13306 c-72 -74 -70 -177 5 -252 85 -86 144 -40 130 101 -11
115 -43 185 -84 185 -10 0 -33 -15 -51 -34z"/>
<path d="M5554 12925 c-22 -34 -29 -140 -12 -190 30 -90 81 -23 79 102 -2 102
-32 141 -67 88z"/>
<path d="M14122 12928 c-38 -19 -41 -75 -8 -180 8 -27 12 -48 10 -48 -2 0 1
-11 6 -25 9 -24 13 -38 27 -110 18 -91 -2 -158 -52 -171 -31 -8 -132 31 -144
55 -8 17 -8 42 4 169 l8 82 -26 0 c-52 0 -79 -55 -103 -206 -3 -20 -7 -44 -9
-53 -3 -16 -12 -78 -21 -136 -14 -94 -27 -153 -43 -194 -28 -69 -45 -188 -32
-210 11 -17 61 -7 61 12 0 8 27 45 60 83 33 38 61 78 61 89 1 11 3 55 4 98 1
56 6 82 17 94 38 37 171 33 214 -8 15 -14 25 -38 29 -72 4 -29 8 -63 10 -77 3
-24 8 -75 20 -225 4 -38 8 -81 10 -95 5 -32 16 -195 20 -285 23 -497 23 -2477
0 -2960 -1 -33 -6 -134 -9 -225 -4 -91 -9 -193 -11 -227 -2 -34 -6 -131 -10
-215 -4 -84 -9 -187 -11 -228 -21 -339 -7 -492 47 -521 24 -13 57 4 69 35 17
46 25 227 35 796 12 688 14 958 14 2230 0 1705 -6 2093 -39 2355 -25 189 -36
235 -72 299 -42 73 -86 97 -136 74z"/>
<path d="M5551 12576 c-19 -23 -15 -151 6 -195 10 -20 22 -36 28 -36 33 0 51
154 24 210 -16 34 -40 43 -58 21z"/>
<path d="M5573 12129 c-31 -11 -19 -39 17 -39 15 0 30 7 34 15 7 20 -24 35
-51 24z"/>
<path d="M13897 11769 c-47 -28 -55 -104 -14 -147 18 -20 29 -23 65 -19 48 5
92 39 92 69 0 71 -87 130 -143 97z"/>
<path d="M5541 11614 c-48 -61 -55 -160 -66 -954 -4 -234 -8 -497 -10 -585 -2
-88 -6 -306 -10 -485 -3 -179 -8 -426 -10 -550 -7 -327 -6 -679 2 -725 8 -51
9 -122 1 -160 -6 -36 6 -55 36 -55 39 0 60 54 71 185 4 39 8 81 10 95 11 75
19 196 17 280 -4 199 -2 1025 3 1260 3 135 7 367 10 515 5 268 8 354 20 720
12 337 13 450 4 468 -14 25 -54 21 -78 -9z"/>
<path d="M13600 11395 c-21 -22 -27 -60 -10 -70 30 -18 45 -220 18 -252 -16
-19 -18 -488 -2 -728 10 -172 12 -2288 1 -2650 -4 -132 -11 -260 -16 -284 -8
-42 -7 -46 21 -73 38 -35 75 -37 88 -3 13 35 17 181 35 1295 8 527 15 906 20
1085 23 882 25 1098 9 1237 -15 123 -20 179 -29 278 -12 132 -24 179 -47 182
-53 6 -69 3 -88 -17z"/>
<path d="M13311 10477 c-37 -18 -44 -64 -37 -257 8 -242 16 -282 57 -295 43
-14 89 72 105 194 3 25 7 55 9 67 2 11 -5 43 -15 71 -18 51 -28 111 -29 166
-1 28 -32 67 -53 67 -7 0 -24 -6 -37 -13z"/>
<path d="M13306 9858 c-15 -13 -29 -34 -31 -48 -13 -67 -20 -247 -40 -1035
-13 -510 -17 -650 -32 -1105 -11 -364 -10 -692 4 -715 18 -33 59 -50 91 -39
39 14 53 60 67 224 15 182 22 413 50 1745 5 250 15 580 21 685 10 193 2 243
-42 281 -34 30 -60 32 -88 7z"/>
<path d="M13270 6830 c-17 -31 -12 -57 12 -63 33 -9 49 9 37 43 -13 36 -36 45
-49 20z"/>
<path d="M5941 4002 c-9 -7 -11 -19 -7 -36 5 -22 18 -29 89 -50 133 -41 519
-132 675 -161 15 -3 36 -7 47 -9 11 -3 117 -25 235 -49 258 -53 393 -77 515
-92 28 -3 75 -10 105 -15 30 -5 84 -12 120 -15 36 -3 82 -8 103 -10 89 -12
116 -14 192 -20 44 -3 103 -8 130 -10 28 -3 80 -7 118 -10 164 -12 204 -16
242 -20 35 -4 159 -13 280 -20 22 -2 110 -6 195 -10 85 -4 189 -8 230 -10 169
-8 448 -18 497 -19 76 0 109 37 61 68 -23 14 -92 22 -273 31 -55 3 -140 8
-190 10 -49 3 -130 8 -180 10 -49 3 -103 7 -120 10 -16 2 -64 6 -105 10 -41 3
-91 7 -110 10 -19 3 -60 7 -90 10 -84 8 -151 15 -190 20 -19 2 -57 7 -85 10
-27 2 -70 7 -95 9 -25 3 -92 10 -150 16 -58 5 -123 12 -145 15 -22 2 -65 7
-95 10 -30 3 -75 8 -100 11 -25 3 -63 7 -85 9 -22 2 -58 6 -80 9 -22 3 -62 8
-90 11 -27 3 -66 7 -85 10 -34 4 -63 8 -160 20 -37 4 -146 22 -245 40 -48 8
-533 107 -665 135 -80 17 -156 33 -170 36 -14 2 -45 9 -70 14 -78 18 -93 20
-165 26 -38 3 -76 1 -84 -4z"/>
<path d="M6907 3554 c-43 -13 13 -57 98 -78 33 -9 74 -18 90 -21 17 -2 41 -7
54 -10 21 -4 87 -13 216 -30 17 -2 48 -7 70 -10 62 -9 96 -14 145 -20 25 -3
55 -7 67 -9 12 -3 46 -7 75 -10 29 -4 64 -8 78 -10 14 -3 48 -7 75 -11 85 -10
119 -16 155 -25 46 -12 149 -27 230 -35 36 -3 81 -8 100 -10 19 -2 76 -7 125
-10 50 -3 115 -8 145 -10 157 -12 191 -15 265 -20 44 -3 109 -7 145 -10 71 -5
202 -14 290 -20 30 -2 93 -6 140 -9 171 -13 229 -16 425 -21 381 -10 455 -16
455 -35 0 -15 39 -21 59 -11 11 6 23 21 27 33 10 28 12 88 5 92 -3 2 -53 7
-111 11 -58 4 -123 8 -145 10 -22 2 -85 6 -140 10 -55 3 -125 8 -155 10 -50 5
-124 9 -310 20 -106 6 -251 15 -305 20 -27 2 -93 7 -145 10 -52 3 -122 8 -155
10 -33 2 -100 7 -150 10 -92 5 -183 13 -245 20 -19 2 -71 7 -115 10 -133 10
-284 23 -345 30 -25 2 -67 7 -95 10 -27 3 -68 7 -90 10 -22 2 -67 7 -100 10
-84 8 -145 15 -180 20 -16 2 -52 7 -80 10 -27 4 -77 10 -110 15 -33 5 -78 12
-100 15 -22 3 -69 10 -105 16 -36 5 -81 12 -100 14 -61 8 -234 14 -253 9z"/>
<path d="M10500 3210 c-20 -12 -4 -28 38 -36 24 -5 33 -3 38 10 4 9 5 19 2 21
-9 10 -64 13 -78 5z"/>
</g>
</svg>
